<svg id="Layer_1" data-name="Layer 1" xmlns="http://www.w3.org/2000/svg" viewBox="0 0 595.281 595.281"><defs><style>.cls-1{fill:#77c677;}.cls-2{fill:#f9e5b9;}.cls-3{fill:#4788a8;}.cls-4{fill:none;stroke:#6b6b6b;stroke-miterlimit:10;stroke-width:0.5px;}.cls-5{fill:#d63c4f;opacity:0.59;}.cls-6{fill:#3d65d3;opacity:0.58;}</style></defs><title>FC</title><polygon class="cls-1" points="0 342.411 0 301.821 87.694 260.928 61.45 248.691 113.937 224.216 192.667 260.928 245.154 285.403 297.641 260.928 323.884 248.691 350.127 260.928 323.884 273.166 350.127 285.403 376.371 273.166 428.857 248.691 481.344 273.166 455.101 285.403 586.317 346.591 297.641 481.203 0 342.411"/><polygon class="cls-2" points="8.964 346.591 61.45 322.116 87.694 309.878 61.45 297.641 87.694 285.403 113.937 297.641 166.424 322.116 192.667 309.878 218.911 322.116 271.397 297.641 297.641 309.878 323.884 297.641 402.614 334.353 455.101 309.878 533.831 346.591 507.587 358.828 533.831 371.065 297.641 481.203 8.964 346.591"/><polygon class="cls-3" points="35.207 358.828 113.937 322.116 166.424 346.591 192.667 334.353 218.911 346.591 271.397 322.116 323.884 346.591 350.127 334.353 376.371 346.591 402.614 358.828 455.101 334.353 481.344 346.591 455.101 358.828 481.344 371.065 455.101 383.303 481.344 395.54 297.641 481.203 35.207 358.828"/><line class="cls-4" y1="424.195" x2="595.281" y2="146.611"/><line class="cls-4" y1="448.67" x2="595.281" y2="171.086"/><line class="cls-4" y1="473.145" x2="595.281" y2="195.561"/><line class="cls-4" y1="497.62" x2="595.281" y2="220.036"/><line class="cls-4" y1="522.095" x2="595.281" y2="244.511"/><line class="cls-4" y1="546.57" x2="595.281" y2="268.986"/><line class="cls-4" y1="571.045" x2="595.281" y2="293.461"/><line class="cls-4" y1="595.52" x2="595.281" y2="317.936"/><line class="cls-4" y1="619.995" x2="595.281" y2="342.411"/><line class="cls-4" y1="644.47" x2="595.281" y2="366.886"/><line class="cls-4" y1="668.945" x2="595.281" y2="391.361"/><line class="cls-4" y1="693.42" x2="595.281" y2="415.836"/><line class="cls-4" y1="717.895" x2="595.281" y2="440.31"/><line class="cls-4" y1="742.37" x2="595.281" y2="464.785"/><line class="cls-4" y1="766.845" x2="595.281" y2="489.26"/><line class="cls-4" y1="106.021" x2="595.281" y2="-171.563"/><line class="cls-4" y1="130.496" x2="595.281" y2="-147.088"/><line class="cls-4" y1="154.971" x2="595.281" y2="-122.613"/><line class="cls-4" y1="179.446" x2="595.281" y2="-98.138"/><line class="cls-4" y1="203.921" x2="595.281" y2="-73.664"/><line class="cls-4" y1="228.396" x2="595.281" y2="-49.189"/><line class="cls-4" y1="252.871" x2="595.281" y2="-24.714"/><line class="cls-4" y1="277.346" x2="595.281" y2="-0.239"/><line class="cls-4" y1="301.821" x2="595.281" y2="24.236"/><line class="cls-4" y1="326.295" x2="595.281" y2="48.711"/><line class="cls-4" y1="350.77" x2="595.281" y2="73.186"/><line class="cls-4" y1="375.245" x2="595.281" y2="97.661"/><line class="cls-4" y1="399.72" x2="595.281" y2="122.136"/><line class="cls-4" x1="595.281" y1="424.195" y2="146.611"/><line class="cls-4" x1="595.281" y1="448.67" y2="171.086"/><line class="cls-4" x1="595.281" y1="473.145" y2="195.561"/><line class="cls-4" x1="595.281" y1="497.62" y2="220.036"/><line class="cls-4" x1="595.281" y1="522.095" y2="244.511"/><line class="cls-4" x1="595.281" y1="546.57" y2="268.986"/><line class="cls-4" x1="595.281" y1="571.045" y2="293.461"/><line class="cls-4" x1="595.281" y1="595.52" y2="317.936"/><line class="cls-4" x1="595.281" y1="619.995" y2="342.411"/><line class="cls-4" x1="595.281" y1="644.47" y2="366.886"/><line class="cls-4" x1="595.281" y1="668.945" y2="391.361"/><line class="cls-4" x1="595.281" y1="693.42" y2="415.836"/><line class="cls-4" x1="595.281" y1="717.895" y2="440.31"/><line class="cls-4" x1="595.281" y1="742.37" y2="464.785"/><line class="cls-4" x1="595.281" y1="766.845" y2="489.26"/><line class="cls-4" x1="595.281" y1="106.021" y2="-171.563"/><line class="cls-4" x1="595.281" y1="130.496" y2="-147.088"/><line class="cls-4" x1="595.281" y1="154.971" y2="-122.613"/><line class="cls-4" x1="595.281" y1="179.446" y2="-98.138"/><line class="cls-4" x1="595.281" y1="203.921" y2="-73.664"/><line class="cls-4" x1="595.281" y1="228.396" y2="-49.189"/><line class="cls-4" x1="595.281" y1="252.871" y2="-24.714"/><line class="cls-4" x1="595.281" y1="277.346" y2="-0.239"/><line class="cls-4" x1="595.281" y1="301.821" y2="24.236"/><line class="cls-4" x1="595.281" y1="326.295" y2="48.711"/><line class="cls-4" x1="595.281" y1="350.77" y2="73.186"/><line class="cls-4" x1="595.281" y1="375.245" y2="97.661"/><line class="cls-4" x1="595.281" y1="399.72" y2="122.136"/><polygon class="cls-5" points="0 342.411 0 301.821 87.694 260.928 113.937 273.166 140.181 260.928 166.424 273.166 192.667 260.928 218.911 273.166 297.641 309.878 245.154 334.353 297.641 358.828 218.823 395.581 113.897 346.62 61.45 371.065 0 342.411"/><polygon class="cls-6" points="323.884 273.166 271.397 297.641 297.641 309.878 245.154 334.353 323.884 371.065 350.127 358.828 402.614 383.303 455.101 407.778 586.317 346.591 455.101 285.403 402.614 309.878 323.884 273.166"/></svg>