<?xml version="1.0" encoding="utf-8"?>
<!-- Generator: Adobe Illustrator 16.0.0, SVG Export Plug-In . SVG Version: 6.00 Build 0)  -->
<!DOCTYPE svg PUBLIC "-//W3C//DTD SVG 1.0//EN" "http://www.w3.org/TR/2001/REC-SVG-20010904/DTD/svg10.dtd">
<svg version="1.0" id="Layer_1" xmlns="http://www.w3.org/2000/svg" xmlns:xlink="http://www.w3.org/1999/xlink" x="0px" y="0px"
	 width="1713.682px" height="912.523px" viewBox="0 0 1713.682 912.523" enable-background="new 0 0 1713.682 912.523"
	 xml:space="preserve">
<path fill-rule="evenodd" clip-rule="evenodd" d="M-33.084,103.695c14.957,4.93,29.964,9.713,44.859,14.828
	c16.573,5.691,28.211,17.769,39.265,30.682c38.348,44.799,76.975,89.36,115.167,134.291c10.571,12.437,21.228,25.592,23.577,42.255
	c1.764,12.515,1.162,25.518,0.267,38.209c-1.05,14.913-4.234,29.676-5.271,44.589c-1.587,22.782,4.274,44.361,12.974,65.222
	c13.642,32.711,27.637,65.278,40.953,98.12c10.576,26.082,27.59,46.852,50.023,63.363c34.238,25.197,66.352,52.854,97.198,82.088
	c13.046,12.363,27.049,23.828,44.065,30.686c13.041,5.258,26.496,7.422,40.543,5.312c15.319-2.299,30.635-4.676,46.006-6.584
	c22.677-2.812,42.776,4.344,60.264,18.137c36.953,29.146,71.979,60.348,103.475,95.574c22.326,24.971,47.046,47.787,69.866,72.338
	c13.492,14.516,25.554,30.389,37.927,45.912c14.837,18.619,31.066,35.324,53.537,44.926c14.244,6.086,29.244,8.688,44.267,11.598
	c9.864,1.908,19.568,4.646,29.334,7.047c0.58,0.143,1.09,0.555,3.025,1.576c-3.332,0-5.221,0.213-7.039-0.057
	c-1.979-0.291-3.87-1.143-5.842-1.549c-16.128-3.348-32.407-6.078-48.368-10.088c-25.284-6.354-45.893-20.373-62.181-40.699
	c-11.161-13.928-21.606-28.488-33.507-41.75c-14.059-15.666-29.522-30.062-44.043-45.328c-21.021-22.104-41.514-44.713-62.65-66.705
	c-25.381-26.408-53.339-49.994-82.456-72.125c-18.882-14.35-40.265-19.084-63.937-14.4c-14.832,2.936-29.943,4.977-45.026,5.988
	c-18.151,1.221-35.329-3.881-49.95-14.508c-14.525-10.559-28.324-22.246-41.598-34.363c-23.9-21.824-48.129-43.193-74.203-62.414
	c-18.074-13.322-36.292-26.826-47.722-46.65c-7.769-13.473-13.924-27.924-20.16-42.219c-11.218-25.709-21.901-51.654-32.911-77.458
	c-9.742-22.836-16.618-46.326-14.951-71.443c0.758-11.4,3.453-22.668,4.277-34.069c1.068-14.755,2.115-29.629,1.379-44.363
	c-0.734-14.682-9.561-26.565-18.455-37.507c-17.74-21.825-36.225-43.046-54.543-64.396c-23.812-27.751-47.943-55.23-71.577-83.131
	c-13.001-15.35-29.794-23.57-48.665-28.82c-9.194-2.557-18.137-6.024-27.192-9.079C-33.084,105.72-33.084,104.708-33.084,103.695z"
	/>
<path fill-rule="evenodd" clip-rule="evenodd" d="M-33.084,176.595c8.54,0.923,17.062,2.334,25.624,2.667
	c17.887,0.696,32.806,8.351,46.119,19.351c32.645,26.975,64.02,55.332,91.881,87.359c12.541,14.417,25.057,29.22,29.162,48.311
	c2.623,12.199,2.646,25.069,2.79,37.65c0.112,9.905-1.093,19.859-2.196,29.737c-3.411,30.541,2.557,59.516,15.796,86.795
	c14.218,29.301,25.224,59.756,34.682,90.772c8.015,26.283,23.784,46.43,45.325,62.67c17.191,12.959,34.499,25.773,51.518,38.959
	c20.632,15.99,37.929,35.35,54.648,55.244c11.055,13.15,21.564,26.801,33.199,39.412c12.632,13.691,27.546,24.693,46.671,27.041
	c7.81,0.959,16.091-0.346,23.951-1.756c13.388-2.406,26.534-6.137,39.923-8.545c23.279-4.188,45.115-0.854,66.086,11.24
	c28.611,16.504,53.369,37.414,75.846,61.287c22.783,24.203,46.906,46.965,71.879,68.898c17.234,15.137,32.752,32.014,46.968,50.07
	c16.399,20.826,33.276,41.207,56.993,54.385c1.614,0.898,3.216,1.812,4.824,2.721c1.394,0.787,2.786,1.576,4.178,2.363
	c-0.145,0.424-0.291,0.846-0.437,1.27c-2.686-0.785-5.644-1.092-8.017-2.432c-17.189-9.709-32.006-22.242-44.508-37.578
	c-19.916-24.432-39.402-49.361-63.604-69.785c-31.761-26.803-59.703-57.463-89.365-86.387
	c-21.576-21.041-45.959-38.295-73.713-50.396c-9.968-4.348-20.787-5.049-31.311-3.906c-13.665,1.482-27.174,4.438-40.733,6.846
	c-10.918,1.939-21.774,5.346-32.729,5.664c-12.193,0.355-23.631-4.449-34.029-11.152c-15.988-10.309-28.342-24.283-39.709-39.229
	c-31.072-40.863-68.056-75.371-110.468-104.287c-16.304-11.119-31.948-23.557-42.12-40.889
	c-6.068-10.338-11.134-21.537-14.817-32.939c-10.079-31.207-21.396-61.838-35.414-91.53c-13.843-29.322-17.736-60.197-14.074-92.574
	c1.976-17.466,1.377-35.376,0.28-52.981c-0.771-12.379-7.232-23.362-14.465-33.417c-14.119-19.636-30.578-37.274-48.198-53.733
	c-18.946-17.699-38.458-34.796-57.878-51.981c-15.095-13.358-32.89-19.82-53.047-20.232c-5.847-0.12-11.675-1.268-17.511-1.945
	C-33.084,178.62-33.084,177.607-33.084,176.595z"/>
<path fill-rule="evenodd" clip-rule="evenodd" d="M1809.643,674.738c-4.718,8.66-9.597,17.24-14.117,26
	c-5.945,11.521-13.787,21.477-23.398,30.148c-11.707,10.559-25.174,12.465-39.541,7.49c-23.782-8.23-44.747-21-60.991-40.619
	c-15.018-18.137-16.035-38.869-7.833-59.498c7.93-19.938,18.318-38.902,27.73-58.244c8.811-18.107,15.448-36.871,18.06-56.938
	c3.055-23.48-3.453-44.712-15.575-64.432c-11.127-18.102-26.841-32.359-41.192-47.744c-15.275-16.379-31.313-32.047-44.025-50.718
	c-15.378-22.592-21.408-47.208-18.408-74.278c2.116-19.083,4.954-38.174,5.566-57.323c1.817-56.755-22.693-98.762-73.769-123.926
	c-19.822-9.768-40.861-17.1-61.459-25.255c-19.184-7.596-35.874-18.39-45.181-37.414c-5.884-12.03-9.816-25-15.035-37.375
	c-4.372-10.362-8.6-20.908-14.275-30.559c-4.689-7.977-11.403-14.763-17.335-22.223c1.383,0.538,3.467,0.86,4.922,1.991
	c9.852,7.663,16.073,18.122,20.924,29.271c5.896,13.546,11.575,27.245,16.303,41.23c8.693,25.718,25.66,42.596,50.921,52.245
	c22.413,8.561,44.993,17.057,66.405,27.769c33.483,16.749,56.039,43.657,66.077,80.138c5.647,20.532,6.007,41.374,3.393,62.568
	c-2.491,20.194-4.086,40.579-4.587,60.916c-0.41,16.552,6.638,31.373,15.063,45.398c11.216,18.672,26.667,33.78,41.277,49.637
	c14.825,16.089,30.466,31.644,43.512,49.107c21.081,28.22,25.16,60.026,15.105,93.942c-6.654,22.453-18.051,42.641-27.994,63.57
	c-6.315,13.297-12.647,26.875-16.429,41.008c-4.073,15.23-1.354,30.35,8.946,43.389c15.982,20.23,37.081,32.898,60.92,41.412
	c17.569,6.271,31.258-0.377,43.254-13.379c10.831-11.738,17.215-26.035,24.687-39.756c2.525-4.631,5.377-9.084,8.08-13.621
	C1809.643,670.689,1809.643,672.714,1809.643,674.738z"/>
<path fill-rule="evenodd" clip-rule="evenodd" d="M-33.084,248.481c12.14,0.192,24.293,0.117,36.419,0.643
	c15.849,0.688,30.002,6.868,43.588,14.531c27.762,15.658,50.375,36.958,68.296,63.19c8.469,12.398,12.788,26.521,12.454,41.457
	c-0.537,23.926-1.217,47.905-3.382,71.722c-2.172,23.881,2.167,46.057,13.882,66.59c14.92,26.148,25.934,53.752,34.51,82.539
	c5.75,19.299,13.568,38.129,28.639,52.051c11.059,10.219,23.744,18.809,36.29,27.252c19.563,13.166,39.498,25.73,56.615,42.193
	c18.731,18.014,34.464,38.334,46.889,61.094c17.815,32.635,35.571,65.312,52.608,98.355c7.388,14.332,9.986,29.988,5.424,46.051
	c-3.303,11.631-11.646,19.918-19.55,28.4c-12.778,13.709-28.741,23.285-44.356,33.195c-22.142,14.051-44.859,27.207-66.809,41.543
	c-9.949,6.5-18.622,14.945-27.93,22.439c-1.412,1.137-3.128,1.896-4.703,2.832c-0.406-0.535-0.812-1.074-1.219-1.609
	c6.047-5.363,11.923-10.932,18.17-16.049c19.223-15.75,41.285-27.111,62.264-40.17c22.109-13.762,45.15-26.385,63.363-45.564
	c7.287-7.672,14.719-15.395,17.783-26c4.198-14.527,2.276-29.031-4.432-41.805c-20.795-39.598-41.688-79.211-64.484-117.666
	c-19.119-32.254-47.271-56.229-78.799-76.379c-15.293-9.775-30-20.523-44.539-31.412c-14.094-10.553-21.978-25.85-28.271-41.707
	c-5.753-14.496-9.344-29.867-15.298-44.27c-7.366-17.814-15.446-35.428-24.559-52.408c-12.901-24.044-17.047-49.189-14.396-76.118
	c1.896-19.273,2.601-38.679,3.352-58.044c0.867-22.321-6.402-41.75-20.896-58.933c-18.563-22.007-39.64-40.692-65.435-53.787
	c-13.254-6.728-27.225-10.684-42.128-10.951c-9.786-0.175-19.575-0.122-29.361-0.171C-33.084,250.506-33.084,249.494-33.084,248.481
	z"/>
<path fill-rule="evenodd" clip-rule="evenodd" d="M-33.084,289.993c17.256,1.346,34.8,0.879,51.353,7.023
	c28.043,10.409,50.057,28.078,63.712,55.05c7.82,15.445,7.977,32.226,5.938,48.921c-3.078,25.221-15.794,45.748-32.443,64.279
	c-5.615,6.25-10.806,12.924-15.746,19.727c-8.33,11.467-8.368,21.54,1.18,32.077c6.012,6.635,13.43,12.182,20.839,17.322
	c16.21,11.25,32.382,22.379,45.227,37.711c9.595,11.451,14.563,25.275,21.052,38.348c5.828,11.744,11.412,23.643,17.895,35.023
	c9.597,16.848,25.146,27.338,41.537,36.678c15.915,9.072,32.311,17.385,47.711,27.254c24.789,15.893,44.73,36.756,58.146,63.189
	c13.54,26.676,27.142,53.355,39.474,80.602c9.025,19.939,12.618,41.127,6.917,63.055c-2.671,10.275-8.6,18.459-15.519,26.203
	c-15.768,17.639-34.969,30.99-54.507,43.902c-23.725,15.682-45.473,33.615-64.261,55.051c-1.191,1.355-3.202,1.998-4.832,2.975
	c-0.445-0.566-0.891-1.129-1.337-1.693c9.257-9.207,18.326-18.609,27.809-27.574c18.569-17.555,40.823-30.215,61.03-45.576
	c12.806-9.738,24.812-20.729,36.096-32.219c14.814-15.088,16.656-34.182,13.867-54.197c-2.74-19.674-11.067-37.311-19.855-54.729
	c-10.906-21.613-21.448-43.467-33.596-64.377c-13.236-22.781-32.139-40.641-54.677-54.297c-13.935-8.443-28.19-16.416-42.661-23.908
	c-26.064-13.498-44.594-33.564-55.83-60.682c-4.627-11.166-10.174-21.953-15.373-32.881c-9.607-20.184-25.983-34.066-43.696-46.658
	c-8.365-5.945-17.214-11.27-25.176-17.701c-4.87-3.936-9.165-9.006-12.491-14.332c-6.123-9.809-5.473-20,1.627-29.192
	c8.229-10.656,17.047-20.854,25.355-31.449c20.212-25.771,28.667-54.67,21.719-87.123c-3.901-18.233-15.41-31.946-28.952-43.949
	c-21.037-18.642-45.899-27.467-73.905-27.86c-4.545-0.063-9.084-0.624-13.624-0.956C-33.084,292.018-33.084,291.006-33.084,289.993z
	"/>
<path fill-rule="evenodd" clip-rule="evenodd" d="M1809.643,550.205c-16.535-6.225-21.375-20.771-25.248-35.846
	c-4.055-15.783-7.113-31.848-11.808-47.428c-6.948-23.057-22.062-39.836-42.119-52.999c-18.4-12.075-36.538-24.718-53.671-38.506
	c-17.498-14.085-31.638-31.272-38.102-53.554c-4.086-14.084-3.309-28.415-1.589-42.66c2.543-21.045,6.424-41.955,8.288-63.048
	c2.959-33.458-8.22-63.264-26.271-90.857c-16.313-24.939-38.489-43.948-62.027-61.674c-14.25-10.732-28.197-21.887-41.938-33.266
	c-18.256-15.122-27.099-35.528-31.527-58.262c-1.279-6.573-2.929-13.073-4.407-19.606c0.399-0.302,0.8-0.605,1.2-0.907
	c0.936,1.411,2.337,2.707,2.721,4.255c1.781,7.178,3.358,14.412,4.864,21.656c5.48,26.329,20.974,45.599,42.003,61.467
	c19.884,15.002,39.805,30.078,58.522,46.476c30.307,26.548,50.689,59.501,58.74,99.422c3.106,15.413,1.778,30.899-0.148,46.325
	c-2.523,20.201-5.465,40.354-7.731,60.583c-2.832,25.268,6.551,46.396,22.883,65.108c16.27,18.642,36.693,31.985,56.814,45.84
	c12.174,8.381,24.56,16.792,35.274,26.864c13.568,12.754,20.198,30.004,24.838,47.783c3.988,15.277,7.061,30.801,11.3,46.004
	c2.555,9.162,7.129,17.51,16.323,22.068c0.846,0.422,1.871,0.484,2.814,0.711C1809.643,547.501,1809.643,548.851,1809.643,550.205z"
	/>
<path fill-rule="evenodd" clip-rule="evenodd" d="M-33.084,523.878c12.866,20.725,33.284,32.855,52.578,46.287
	c8.561,5.959,17.153,11.895,25.457,18.203c16.675,12.668,27.95,29.355,35.567,48.713c4.115,10.455,7.892,21.102,12.84,31.16
	c8.781,17.852,24.085,28.555,42.062,35.869c18.044,7.346,36.215,14.381,54.124,22.037c27.699,11.84,49.442,30.799,63.551,57.451
	c13.278,25.088,26.035,50.51,37.654,76.393c7.525,16.77,9.918,34.885,5.206,53.277c-2.899,11.314-9.364,20.58-17.59,28.416
	c-13.651,13.006-27.357,26.033-41.894,38.016c-21.562,17.777-40.109,38.434-58.992,58.82c-2.139,2.312-4.783,4.152-7.193,6.209
	c-0.437-0.502-0.873-1.008-1.31-1.51c6.313-6.943,12.778-13.752,18.912-20.85c20.265-23.453,44.368-42.768,67.511-63.133
	c7.709-6.785,14.95-14.113,22.222-21.375c15.759-15.744,19.914-34.789,16.131-56.266c-2.545-14.457-8.244-27.678-14.744-40.621
	c-9.126-18.172-18.209-36.373-27.741-54.33c-15.07-28.393-38.346-47.75-67.799-59.924c-17.852-7.377-35.924-14.227-53.717-21.738
	c-22.678-9.57-37.613-26.346-45.627-49.668c-5.354-15.582-11.434-30.908-21.367-44.357c-10.821-14.65-25.584-24.676-40.215-34.939
	c-15.543-10.9-32.164-20.42-45.427-34.326c-3.574-3.746-6.809-7.818-10.199-11.74C-33.084,527.927-33.084,525.904-33.084,523.878z"
	/>
<path fill-rule="evenodd" clip-rule="evenodd" d="M-33.084,612.978C-21.729,624.833-15.043,639.011-11.74,655
	c3.125,15.129,6.241,30.273,9.98,45.256c3.669,14.699,13.785,23.664,27.55,29.316c28.893,11.863,59.004,19.416,89.379,26.178
	c18.404,4.098,36.922,8.568,52.549,19.584c17.771,12.523,32.881,27.736,41.666,48.311c6.591,15.434,14.402,30.391,20.27,46.084
	c5.383,14.391,6.948,30.049,2.143,44.688c-3.756,11.441-9.986,22.486-17.004,32.363c-22.938,32.301-48.179,62.812-74.956,92.023
	c-2.151,2.348-4.997,4.055-7.521,6.059c-0.285-0.369-0.567-0.744-0.853-1.115c12.489-14.318,25.486-28.232,37.347-43.055
	c17.239-21.543,34.311-43.279,50.241-65.791c15.776-22.295,15.052-47.053,5.179-71.336c-7.326-18.018-14.943-36.32-25.441-52.547
	c-13.305-20.564-31.512-37.053-55.918-44.162c-19.503-5.682-39.512-9.621-59.006-15.32c-20.608-6.023-41.027-12.791-61.246-20.027
	C4.421,724.998-3.737,709.9-7.669,692.14c-3.013-13.609-5.203-27.406-8.272-41c-2.81-12.441-8.314-23.682-17.143-33.1
	C-33.084,616.351-33.084,614.664-33.084,612.978z"/>
<path fill-rule="evenodd" clip-rule="evenodd" d="M1809.643,824.587c-9.416-1.717-18.783-3.777-28.256-5.074
	c-16.561-2.268-32.509,1.045-48.111,6.369c-17.312,5.91-34.438,12.414-51.919,17.768c-24.226,7.416-48.839,6.457-73.487,1.701
	c-27.744-5.354-55.289-11.891-83.941-10.797c-24.93,0.951-44.583,16.529-48.206,41.252c-4.731,32.303-8.63,64.738-12.181,97.193
	c-2.712,24.771,1.511,48.523,13.86,70.535c-0.343,0.316-0.685,0.631-1.025,0.949c-1.306-1.252-3.001-2.281-3.861-3.789
	c-8.547-14.98-11.883-31.455-12.37-48.398c-0.338-11.736,0.122-23.6,1.485-35.258c3.131-26.74,6.768-53.434,10.693-80.07
	c4.008-27.189,24.448-46.756,58.081-45.846c22.525,0.611,44.512,4.232,66.438,8.963c23.509,5.07,47.272,8.342,71.175,3.482
	c10.806-2.197,21.23-6.281,31.809-9.568c17.631-5.482,35.075-11.664,52.916-16.33c17.746-4.641,35.482-1.193,52.96,3.049
	c1.305,0.316,2.626,0.557,3.94,0.832C1809.643,822.564,1809.643,823.574,1809.643,824.587z"/>
<path fill-rule="evenodd" clip-rule="evenodd" d="M1809.643,375.042c-18.794-5.713-37.643-11.254-56.368-17.185
	c-20.113-6.372-37.946-16.391-50.772-33.773c-6.56-8.889-10.059-18.8-10.452-29.983c-0.686-19.551,2.407-38.659,6.562-57.582
	c8.151-37.102,1.891-72.248-15.668-105.078c-14.486-27.092-30.841-53.221-47.101-79.32c-16.056-25.771-28.365-52.958-35.217-82.58
	c-1.319-5.707-3.093-11.309-4.657-16.959c0.391-0.317,0.782-0.635,1.173-0.951c0.993,1.341,2.466,2.544,2.896,4.046
	c2.689,9.365,5.061,18.824,7.697,28.205c7.12,25.327,19.425,48.159,33.216,70.404c15.316,24.706,30.656,49.459,44.486,75.003
	c10.583,19.545,18.523,40.747,19.143,63.226c0.454,16.528-2.193,33.169-3.853,49.721c-1.59,15.865-4.171,31.64-5.435,47.526
	c-1.473,18.498,7.477,32.656,20.774,44.486c14.605,12.995,32.465,19.284,50.85,24.5c12.595,3.572,25.143,7.307,37.689,11.042
	c1.744,0.519,3.36,1.464,5.036,2.212C1809.643,373.017,1809.643,374.029,1809.643,375.042z"/>
<path fill-rule="evenodd" clip-rule="evenodd" d="M-33.084,777c13.685,5.693,28.251,7.262,42.756,9.084
	c26.669,3.359,53.61,4.678,79.532,13.018c31.782,10.223,54.427,30.283,67.058,61.055c14.565,35.488,12.487,70.57-3.944,105.119
	c-14.266,29.994-34.047,55.572-59.825,76.488c-1.648,1.336-3.919,1.902-5.901,2.828c-0.248-0.412-0.498-0.826-0.746-1.24
	c1.887-1.557,3.784-3.102,5.658-4.678c31.243-26.271,54.691-58.148,66.526-97.389c15.559-51.59-5.383-124.85-79.255-142.021
	c-20.105-4.674-40.525-6.318-60.841-9.15c-17.095-2.383-34.019-5.994-51.018-9.062C-33.084,779.701-33.084,778.347-33.084,777z"/>
<path fill-rule="evenodd" clip-rule="evenodd" d="M1809.643,883.312c-12.516,1.48-25.116,2.461-37.533,4.539
	c-32.992,5.523-65.801,12.24-98.896,17.033c-17.567,2.545-35.567,2.227-53.38,2.936c-14.141,0.562-28.335,0.186-42.434,1.191
	c-19.488,1.391-32.917,13.051-42.885,28.664c-13.449,21.068-19.419,44.242-16.512,69.326c1.25,10.795,5.868,20.262,12.421,28.822
	c2.028,2.652,4.239,5.164,5.679,8.75c-1.686-1-3.743-1.666-4.995-3.057c-9.372-10.414-15.643-22.521-16.536-36.562
	c-2.085-32.662,6.933-61.557,30.846-84.855c9.578-9.332,21.297-14.096,34.578-14.451c19.698-0.529,39.406-0.762,59.112-0.908
	c21.695-0.162,42.744-4.604,63.909-8.707c21.126-4.096,42.432-7.299,63.693-10.654c14.278-2.252,28.619-4.092,42.932-6.117
	C1809.643,880.609,1809.643,881.96,1809.643,883.312z"/>
<path fill-rule="evenodd" clip-rule="evenodd" d="M-33.084,817.501c9.585,1.682,19.147,3.523,28.763,5.02
	c15.777,2.459,31.826,3.656,47.334,7.238c33.061,7.629,54.818,28.617,65.134,60.693c8.288,25.775,8.567,52.234,0.457,78.061
	c-6.856,21.834-20.583,39.615-37.822,54.531c-7.622,6.596-15.662,12.723-23.722,18.785c-1.975,1.484-4.77,1.879-7.187,2.775
	c-0.216-0.416-0.432-0.83-0.647-1.244c1.856-1.254,3.688-2.547,5.572-3.754c18.803-12.07,34.836-27.197,47.594-45.438
	c16.853-24.094,20.705-51.305,17.515-80.016c-2.331-20.979-9.274-39.91-23.485-55.77c-15.339-17.115-35.225-25.387-57.478-28.625
	c-19.647-2.861-39.335-5.432-59.008-8.107c-0.992-0.135-2.013-0.072-3.02-0.102C-33.084,820.199-33.084,818.849-33.084,817.501z"/>
<path fill-rule="evenodd" clip-rule="evenodd" d="M-33.084,471.228c12.356-15.861,30.144-25.119,45.452-37.391
	c11.355-9.104,22.422-18.557,27.582-32.787c6.34-17.484,3.451-33.414-8.904-47.478c-12.369-14.079-28.183-22.099-46.235-26.033
	c-5.91-1.288-11.927-2.095-17.895-3.121c0-1.013,0-2.025,0-3.038c24.603,2.707,47.48,9.464,64.941,28.39
	c19.175,20.781,19.53,48.587,0.464,69.604c-6.514,7.177-13.98,13.617-21.627,19.607c-15.115,11.844-32.229,21.289-43.778,37.31
	C-33.084,474.603-33.084,472.917-33.084,471.228z"/>
<path fill-rule="evenodd" clip-rule="evenodd" d="M-33.084,430.729c8.342-7.792,16.974-15.299,24.962-23.436
	c15.157-15.442,15.093-29.917-1.231-44.092c-6.733-5.846-15.752-9.06-23.73-13.472c0-1.35,0-2.701,0-4.05
	c8.802,5.075,18.294,9.266,26.221,15.459c8.997,7.029,15.056,16.748,12.123,29.016c-1.241,5.19-3.554,10.837-7.132,14.618
	c-9.91,10.469-20.744,20.065-31.212,30.005C-33.084,433.429-33.084,432.078-33.084,430.729z"/>
<path fill-rule="evenodd" clip-rule="evenodd" d="M824.032-46.044c-16.741,4.69-33.364,9.87-50.251,13.965
	c-29.528,7.16-59.769,11.537-88.36,22.311c-27.348,10.303-53.32,23.35-75.811,42.253c-7.008,5.889-13.253,13.123-18.365,20.736
	c-8.232,12.27-8.336,29.864,6.451,46.895c9.149,10.54,19.156,20.336,28.805,30.439c14.414,15.096,25.146,32.809,36.104,50.39
	c9.545,15.319,19.474,30.377,34.187,41.475c13.856,10.453,29.716,14.968,46.751,17.084c22.383,2.782,43.949-2.406,65.73-5.458
	c20.209-2.833,40.258-2.685,60.359,0.707c24.25,4.091,48.706,5.999,72.83,0.348c10.799-2.529,21.084-7.732,31.216-12.535
	c33.012-15.643,62.046-37.688,92.104-58.053c13.375-9.061,27.747-16.001,43.396-19.695c13.768-3.25,32.372-0.078,37.11,21.596
	c1.746,7.988,2.285,16.308,2.672,24.51c0.776,16.495,0.316,33.08,1.773,49.501c1.434,16.17,7.484,30.708,21.036,41
	c5.621,4.268,12.01,5.764,19.003,5.126c24.146-2.202,48.271-4.843,72.464-6.301c11.023-0.665,22.246,0.532,33.273,1.805
	c15.68,1.81,31.452,3.6,46.841,6.968c22.91,5.015,40.385,17.789,52.245,38.696c11.188,19.725,22.965,39.241,36.099,57.696
	c10.21,14.342,23.096,26.754,34.453,40.309c12.015,14.342,23.197,29.264,29.75,47.124c13.836,37.724,5.167,71.228-19.64,101.22
	c-16.31,19.717-37.549,33.785-59.339,46.553c-25.067,14.689-50.625,28.631-76.552,41.748
	c-35.781,18.105-61.191,45.705-76.053,82.391c-11.469,28.307-21.17,57.371-30.65,86.428c-10.106,30.977-18.881,62.387-28.529,93.516
	c-5.68,18.328-16.239,33.053-34.493,40.574c-15.767,6.5-31.918,6.367-48.505,1.943c-25.03-6.68-40.428-22.621-47.441-46.93
	c-4.888-16.941-8.793-34.162-13.286-51.215c-3.025-11.488-8.331-21.875-14.92-31.795c-15.604-23.5-45.067-24.855-63.823-8.385
	c-10.981,9.646-20.394,21.055-31.013,31.145c-9.973,9.473-20.216,18.756-31.122,27.102c-4.867,3.725-11.471,5.684-17.597,7.158
	c-15.671,3.773-27.412-3.148-36.953-15.035c-8.99-11.199-13.812-24.498-19.222-37.541c-6.951-16.76-12.851-34.148-21.626-49.916
	c-17.242-30.982-43.794-51.396-77.646-62.275c-14.864-4.777-29.761-9.525-44.357-15.041c-24.274-9.17-42.956-25.732-59.628-45.291
	c-12.096-14.189-24.917-27.959-38.785-40.383c-16.085-14.408-36.061-20.777-57.646-20.758c-19.865,0.016-39.748,0.496-59.594,1.412
	c-44.724,2.07-84.059-11.414-118.805-39.443c-25.145-20.281-43.121-46.148-58.824-73.825c-9.199-16.211-18.326-32.461-23.414-50.673
	c-5.339-19.11-6.122-38.009-0.99-57.309c4.316-16.229,8.794-32.532,11.363-49.087c5.044-32.496-1.317-62.394-22.216-88.901
	c-23.77-30.148-47.128-60.646-69.818-91.612c-19.085-26.047-37.589-52.576-55.153-79.666
	c-12.489-19.261-21.066-40.671-24.912-63.451c-2.568-15.216,4.877-29.605,17.046-35.947c10.132-5.281,20.92-8.297,32.42-8.383
	c12.992-0.096,25.988-0.348,38.977-0.159c16.703,0.242,30.873-5.671,43.219-16.628c1.482-1.315,3.464-2.068,5.61-2.457
	c-6.682,8.431-14.94,14.844-25.068,18.075c-6.646,2.12-13.74,3.509-20.699,3.836c-13.809,0.649-27.666,0.241-41.5,0.453
	c-10.93,0.167-21.311,2.741-31.018,7.863c-14.157,7.468-19.15,24.064-14.117,42.221c9.348,33.719,27.436,62.632,47.518,90.689
	c31.362,43.816,63.076,87.35,96.844,129.37c11.533,14.352,21.641,29.818,25.01,48.398c3.893,21.474,3.162,42.88-2.301,64.119
	c-3.643,14.156-6.75,28.451-10.219,42.652c-3.346,13.696-2.277,27.505,1.902,40.465c14.908,46.225,39.145,87.161,74.561,120.583
	c22.565,21.295,49.3,36.539,80.152,42.334c14.292,2.684,29.154,2.855,43.775,3.082c12.273,0.189,24.566-1.57,36.86-1.801
	c26.625-0.492,52.997,0.686,76.095,16.555c14.148,9.721,25.5,22.383,36.947,34.992c11.417,12.574,22.441,25.678,35.076,36.932
	c14.76,13.148,33.465,19.42,52.052,25.74c18.4,6.254,37.317,12.145,54.191,21.477c28.733,15.889,48.304,40.625,60.029,71.596
	c6.779,17.906,14.325,35.553,22.316,52.949c2.962,6.445,7.536,12.48,12.506,17.609c11.232,11.598,24.792,13.424,40.699,5.109
	c7.932-4.148,15.51-9.58,22.006-15.74c13.445-12.75,26.299-26.15,38.963-39.689c22.029-23.555,58.718-24.242,77.848,8.4
	c8.847,15.098,13.145,31.508,17.175,48.207c2.874,11.908,6.076,23.77,9.841,35.422c6.511,20.146,20.036,33.09,40.529,39.377
	c19.286,5.916,37.793,5.953,55.634-4.09c13.989-7.873,21.97-20.584,26.563-35.469c8.618-27.93,16.544-56.076,25.381-83.934
	c10.917-34.406,21.065-69.105,36.298-101.994c16.946-36.584,43.69-63.15,80.026-80.709c36.509-17.641,72.09-37.014,104.595-61.545
	c17.852-13.471,33.307-28.965,42.227-49.93c4.897-11.514,8.924-23.479,8.764-36.057c-0.229-18.069-4.499-35.301-13.748-51.098
	c-10.02-17.113-22.521-32.318-36.156-46.58c-19.702-20.605-35.307-44.059-49.084-68.86c-3.344-6.02-7.096-11.812-10.486-17.806
	c-9.044-15.974-23.136-25.267-40.1-31.105c-14.146-4.868-28.789-6.67-43.542-8.041c-8.385-0.778-16.777-2.072-25.164-2.061
	c-13.098,0.017-26.21,0.666-39.281,1.554c-17.81,1.211-35.567,3.193-53.382,4.275c-11.766,0.713-20.434-5.557-27.521-14.372
	c-8.072-10.038-12.485-21.746-13.329-34.323c-1.299-19.323-1.188-38.736-2.239-58.082c-0.368-6.777-2.023-13.563-3.76-20.17
	c-2.743-10.433-10.96-14.497-20.714-15.573c-12.62-1.392-24.058,3.62-34.546,9.415c-14.819,8.189-28.943,17.709-42.978,27.231
	c-27.856,18.9-55.8,37.673-87.263,50.155c-8.311,3.296-17.389,5.215-26.293,6.332c-23.128,2.901-46.073,0.073-68.925-3.661
	c-18.5-3.022-36.91-1.637-55.339,1.083c-14.64,2.161-29.314,4.667-44.056,5.423c-42.203,2.166-73.994-15.482-96.027-51.63
	c-11.719-19.224-22.896-38.936-38.373-55.582c-9.756-10.491-20.072-20.464-29.624-31.13c-6.031-6.733-11.235-14.09-13.401-23.363
	c-3.357-14.382,0.443-26.322,9.803-37.422c12.147-14.411,27.066-25.079,43.115-34.539c31.773-18.729,66.211-29.977,102.139-37.403
	c19.254-3.979,38.367-8.655,57.484-13.259c5.695-1.371,11.161-3.67,16.793-5.332c3.299-0.973,6.72-1.524,10.088-2.265
	C823.698-47.818,823.866-46.931,824.032-46.044z"/>
<path fill-rule="evenodd" clip-rule="evenodd" d="M863.11-47.124c-10.808,4.795-21.514,9.834-32.438,14.341
	c-29.906,12.337-61.216,20.167-92.453,28.156c-24.061,6.154-47.086,14.717-68.221,27.923c-10.257,6.41-18.871,14.669-26.016,24.394
	c-9.002,12.252-9.068,27.23,1.133,41.892c9.22,13.249,19.517,25.767,29.646,38.36c11.707,14.557,23.37,29.179,35.771,43.133
	c9.416,10.592,20.803,19.226,35.537,20.428c13.076,1.067,26.342,1.507,39.413,0.609c21.053-1.446,42.038-3.406,63.058-0.309
	c12.135,1.789,24.248,3.802,36.291,6.129c39.046,7.547,75.719,1.794,109.577-19.433c23.228-14.56,46.16-29.588,69.384-44.15
	c22.411-14.051,46.055-25.281,72.919-27.194c13.59-0.968,26.721,1.448,36.729,11.918c8.351,8.736,10.443,20.024,10.123,31.429
	c-0.411,14.641-2.51,29.23-3.04,43.873c-0.376,10.382-0.482,21.01,1.283,31.182c3.245,18.716,17.433,29.983,38.908,31.917
	c19.635,1.768,39.348,2.609,58.989,4.311c28.186,2.443,56.395,4.807,84.475,8.19c12.913,1.556,25.936,5.708,34.48,16.146
	c6.585,8.046,11.402,17.766,15.846,27.284c7.317,15.669,13.075,32.078,20.636,47.617c8.337,17.136,22.166,30.412,34.292,44.834
	c12.446,14.804,25.789,28.933,35.154,46.067c24.778,45.328,18.47,92.483-14.299,131.397c-16.801,19.953-38.1,34.77-59.897,48.441
	c-24.899,15.611-50.438,30.344-76.486,43.949c-41.751,21.807-69.322,54.547-81.726,99.984c-12.92,47.33-25.55,94.736-38.754,141.986
	c-4.469,15.979-9.295,32.002-15.729,47.258c-9.918,23.5-29.264,34.787-54.209,36.66c-26.456,1.984-52.407-0.92-77.786-8.891
	c-19.266-6.051-32.189-18.654-38.421-37.619c-5.917-18.012-10.78-36.369-16.418-54.48c-1.586-5.088-3.91-10.037-6.529-14.695
	c-7.535-13.395-19.776-16.838-32.873-8.742c-7.106,4.395-13.515,9.977-20.006,15.303c-15.508,12.721-30.94,25.684-49.364,33.941
	c-9.538,4.273-19.813,8.174-30.079,9.295c-20.768,2.264-37.551-6.84-47.968-24.609c-10.345-17.645-19.745-36.02-27.665-54.869
	c-13.148-31.293-31.254-58.754-58.924-78.547c-14.244-10.189-30.293-18.055-46.085-25.832
	c-21.821-10.75-43.396-21.955-61.013-38.867c-12.345-11.852-22.676-25.771-34.461-38.242c-9.574-10.131-19.314-20.301-30.172-28.961
	c-13.401-10.691-29.928-13.623-46.711-13.324c-20.544,0.363-41.12,1.006-61.598,2.604c-21.355,1.668-41.732-1.729-61.139-10.084
	c-44.996-19.377-80.959-49.447-106.797-91.443c-13.673-22.225-27.217-44.459-37.724-68.42
	c-11.944-27.238-14.485-54.793-5.763-83.667c5.133-16.991,9.088-34.515,11.599-52.081c4.235-29.639-6.718-54.978-26.009-76.907
	c-39.316-44.694-75.625-91.804-110.749-139.764C119.36,83.38,101.728,51.439,86.528,18.36
	c-15.189-33.056,4.461-55.177,29.459-64.399c3.926-1.448,8.231-1.861,12.361-2.753c0.097,0.399,0.193,0.799,0.291,1.198
	c-5.988,2.424-12.079,4.629-17.946,7.32C98.87-34.847,90.341-26.255,85.907-13.783c-3.409,9.586-1.673,18.996,2.399,27.494
	c8.563,17.87,18.087,35.283,27.337,52.819c17.928,33.988,41.684,63.955,65.459,93.845c25.369,31.892,51.346,63.3,76.91,95.039
	c10.574,13.13,18.578,27.653,21.734,44.449c3.266,17.372,1.902,34.577-2.365,51.601c-3.186,12.71-6.33,25.441-9.971,38.024
	c-6.342,21.917-4.92,43.556,3.48,64.36c17.447,43.205,39.904,83.871,72.236,117.605c25.32,26.418,55.707,46.469,91.703,56.643
	c16.719,4.727,33.58,5.023,50.592,2.967c22.033-2.668,44.076-2.541,66.159-0.975c14.36,1.018,27.657,5.707,38.444,14.867
	c11.247,9.551,21.902,20.096,31.297,31.459c17.271,20.889,34.885,41.305,58.719,54.891c16.482,9.396,33.482,17.934,50.551,26.242
	c40.08,19.518,67.764,50.338,85.732,90.84c9.188,20.707,19.2,41.145,30.338,60.857c9.278,16.42,24.693,24.869,43.848,23.502
	c8.181-0.582,16.492-3.223,24.157-6.363c21.933-8.988,39.916-24.074,57.939-39.027c5.689-4.719,11.447-9.57,17.842-13.174
	c15.271-8.605,29.377-4.934,36.75,10.861c5.99,12.83,9.529,26.82,13.972,40.354c3.252,9.896,5.861,20.014,9.367,29.812
	c6.972,19.49,21.354,30.859,40.987,36.203c24.958,6.789,50.29,9.197,76.026,6.426c23.877-2.572,40.765-15.43,48.8-37.605
	c7.938-21.906,13.758-44.6,20.145-67.047c12.322-43.309,23.794-86.869,36.738-129.988c12.357-41.168,40.23-69.645,77.721-89.299
	c38.025-19.934,75.414-40.861,109.534-67.18c21.025-16.215,38.656-35.039,48.463-60.24c13.941-35.826,8.774-69.805-12.276-100.866
	c-12.51-18.46-27.4-35.423-42.235-52.159c-18.455-20.823-30.577-44.855-39.762-70.751c-2.633-7.423-5.876-14.656-9.239-21.79
	c-6.82-14.47-18.755-23.076-34.033-25.91c-17.339-3.216-34.905-5.572-52.478-7.062c-27.374-2.322-54.882-3.125-82.248-5.533
	c-12.104-1.065-24.634-2.863-35.833-7.241c-14.135-5.526-20.952-18.082-23.023-33.193c-2.999-21.859,1.84-43.361,2.345-65.041
	c0.191-8.284-0.522-16.957-2.854-24.853c-4.234-14.332-15.44-20.712-34.525-21.976c-15.554-1.03-30.128,4.3-44.425,9.838
	c-22.5,8.715-41.701,23.111-61.725,36.1c-22.146,14.367-44.148,28.953-68.822,38.95c-20.99,8.503-42.626,10.918-64.876,8.067
	c-16.842-2.16-33.584-5.095-50.396-7.511c-19.947-2.866-39.841-2.484-59.961-0.721c-16.188,1.42-32.686,0.609-48.948-0.565
	c-11.755-0.848-21.836-7.276-29.813-15.7c-11.441-12.081-22.371-24.695-32.864-37.612c-13.267-16.334-26.548-32.733-38.581-49.97
	c-12.389-17.748-10.488-34.242,3.423-50.773c13.177-15.658,30.509-25.104,48.685-33.447c19.52-8.961,40.355-13.695,60.967-19.099
	c33.839-8.874,67.289-18.782,98.848-34.235c2.512-1.229,5.568-1.344,8.371-1.979C862.817-48.077,862.964-47.6,863.11-47.124z"/>
<path fill-rule="evenodd" clip-rule="evenodd" d="M894.712-46.521c-17.852,8.512-35.354,17.889-53.64,25.343
	c-31.541,12.854-63.556,24.545-95.399,36.657c-14.809,5.632-29.055,12.047-41.543,22.235c-20.649,16.847-17.646,38.975-4.629,54.182
	c8.436,9.854,17.127,19.521,26.172,28.816c16.297,16.748,36.855,24.442,59.632,27.654c30.321,4.276,60.53,9.354,90.849,13.64
	c16.809,2.376,33.719,5.012,50.636,5.447c27.619,0.712,52.785-8.871,76.562-22.226c23.156-13.007,45.97-26.644,69.361-39.205
	c21.754-11.681,45.04-19.448,69.557-23.006c13.131-1.905,26.222-1.478,38.982,2.705c19.477,6.383,30.727,20.77,30.746,41.471
	c0.013,11.708-2.231,23.403-3.134,35.128c-0.953,12.414-2.238,24.864-2.089,37.281c0.233,19.356,12.619,30.405,29.254,36.394
	c9.989,3.598,20.951,4.668,31.565,6.314c30.252,4.692,60.743,5.316,91.3,5.308c11.408-0.004,22.86,1.268,34.213,2.63
	c18.811,2.255,29.733,14.03,34.765,31.419c4.06,14.034,7.271,28.325,10.495,42.585c5.129,22.688,16.249,42.222,30.811,60.028
	c13.647,16.686,27.955,32.883,40.789,50.172c17.451,23.508,26.611,50.154,24.921,79.784c-2.075,36.346-18.074,66.162-44.369,90.609
	c-25.644,23.844-54.95,42.705-84.842,60.672c-18.294,11-36.725,21.777-54.968,32.861c-34.003,20.652-55.06,50.465-63.881,89.342
	c-7.143,31.471-15.066,62.77-22.894,94.08c-9.663,38.641-19.089,77.348-29.588,115.762c-5.715,20.902-16.174,32.252-44.473,33.434
	c-12.361,0.514-24.82-1.432-37.24-2.18c-21.379-1.289-42.781-2.281-64.139-3.869c-10.032-0.746-20.158-1.83-29.925-4.115
	c-15.344-3.586-26.763-12.805-34.166-26.955c-6.239-11.92-12.569-23.812-19.398-35.402c-5.461-9.27-12.076-18.252-24.006-18.719
	c-6.514-0.254-13.34,1.525-19.665,3.523c-19.376,6.117-38.501,13.029-57.864,19.184c-32.757,10.414-61.847-5.926-76.195-28.982
	c-10.208-16.404-19.72-33.275-28.82-50.326c-14.13-26.473-33.276-48.893-54.394-69.863c-18.481-18.354-38.773-34.418-60.943-48.049
	c-30.343-18.656-55.795-42.67-78.242-70.129c-10.826-13.246-22.834-25.162-38.545-32.812c-10.157-4.947-20.857-6.629-31.902-6.045
	c-17.309,0.918-34.664,1.693-51.873,3.635c-25.17,2.84-49.34-0.516-71.686-11.998c-35.694-18.34-68.653-40.777-94.604-71.957
	c-16.005-19.229-27.635-41.391-39.732-63.176c-10.94-19.698-21.335-39.618-28.889-60.958c-7.699-21.75-7.664-43.37-1.607-65.471
	c4.441-16.201,8.172-32.622,11.551-49.081c5.551-27.026-1.809-51.328-19.841-71.291c-41.409-45.843-78.704-94.938-115.964-144.056
	c-13.498-17.793-24.581-37.4-37.355-55.77c-9.322-13.405-19.793-26.006-29.402-39.219C48.354,17.735,42.419,7.786,42.041-3.822
	c-0.561-17.225,8.688-29.931,21.357-40.423c2.471-2.045,5.681-3.199,8.55-4.764c0.253,0.444,0.506,0.888,0.76,1.332
	c-3.968,3.269-8.523,6.046-11.766,9.922c-4.807,5.748-9.346,11.928-12.812,18.546C41.841-7.193,45.177,4.598,51.7,15.319
	c5.582,9.172,12.395,17.589,18.55,26.418c13.28,19.05,26.215,38.346,39.799,57.176c16.048,22.241,32.646,44.085,48.981,66.122
	c23.49,31.691,48.219,62.38,74.984,91.367c10.779,11.676,19.223,24.625,24.46,39.603c6.021,17.209,4.373,34.59,0.447,51.867
	c-3.351,14.748-6.868,29.475-10.89,44.052c-5.737,20.783-4.448,41.171,3.462,60.924c17.97,44.864,40.8,87.15,70.753,125.187
	c15.797,20.059,37.111,34.078,57.996,48.365c15.045,10.293,30.708,19.23,48.068,25.158c21.689,7.408,43.527,6.34,65.9,3.77
	c17.98-2.064,36.352-2.398,54.434-1.402c16.514,0.912,30.285,10.002,41.858,21.441c10.286,10.17,19.953,21.025,29.302,32.076
	c19.041,22.504,41.859,40.391,66.592,56.076c40.764,25.846,75.561,58.145,102.652,98.102c11.102,16.379,19.611,34.5,29.561,51.676
	c6.734,11.633,12.922,23.736,23.397,32.697c16.532,14.143,35.415,20.316,56.741,14.316c17.575-4.945,34.746-11.33,52.116-17.021
	c6.549-2.143,13.066-4.451,19.74-6.105c15.563-3.861,26.731,3.281,34.543,15.783c7.918,12.674,14.957,25.922,21.906,39.168
	c8.949,17.057,23.536,25.719,41.921,27.74c18.401,2.025,36.962,2.611,55.443,3.949c18.822,1.365,37.632,2.861,56.446,4.334
	c9.383,0.734,18.519-0.574,27.351-3.637c13.285-4.607,19.801-15.312,23.202-27.938c7.694-28.557,15.019-57.217,22.215-85.902
	c8.139-32.441,15.762-65.014,24.023-97.422c4.641-18.213,9.143-36.562,15.454-54.223c9.309-26.045,28.023-45.076,50.759-59.877
	c19.715-12.832,40.199-24.486,60.417-36.537c27.512-16.398,54.181-34.016,78.505-54.936c24.342-20.934,41.309-46.533,47.226-78.496
	c6.054-32.694-1.478-62.821-20.426-89.606c-12.128-17.143-25.865-33.215-39.639-49.109c-21.229-24.497-33.662-52.759-39.084-84.495
	c-1.439-8.42-3.688-16.771-6.34-24.9c-5.634-17.275-17.677-27.26-35.938-28.423c-18.146-1.155-36.339-1.871-54.521-2.064
	c-30.944-0.329-61.574-3.486-91.929-9.263c-13.623-2.592-24.4-10.198-32.579-21.326c-4.671-6.358-6.498-13.917-6.049-21.531
	c0.988-16.789,3.029-33.513,4.085-50.299c0.629-10.022,1.61-20.348-0.05-30.117c-2.944-17.333-15.119-26.505-31.738-30.573
	c-20.434-5.003-40.072-0.971-59.683,4.532c-31.479,8.834-59.072,25.608-86.773,42.191c-19.353,11.583-38.96,22.836-60.496,29.796
	c-19.229,6.215-39.14,8.745-59.331,5.742c-30.279-4.503-60.491-9.472-90.761-14.045c-13.647-2.062-27.406-3.389-41.044-5.508
	c-22.888-3.556-42.368-13.714-57.923-31.064c-8.211-9.158-16.756-18.042-24.531-27.557c-8.328-10.193-11.193-22.259-8.25-35.119
	c2.163-9.453,9.238-15.881,16.232-21.986c12.002-10.471,26.525-16.334,41.174-21.92c31.694-12.084,63.538-23.803,94.977-36.519
	c16.006-6.475,31.25-14.833,46.896-22.219c2.453-1.157,5.211-1.667,7.827-2.476C894.321-47.95,894.517-47.235,894.712-46.521z"/>
<path fill-rule="evenodd" clip-rule="evenodd" d="M770.288-47.137c-11.492,2.341-22.941,4.912-34.482,6.978
	C699.747-33.702,664.77-24.06,632.243-6.656c-18.955,10.142-39.179,18.175-56.01,31.85c-8.537,6.935-16.652,14.797-23.293,23.509
	c-4.006,5.259-6.126,12.817-6.828,19.578c-2.335,22.531,5.128,41.344,22.307,56.791c16.259,14.622,33.164,28.882,45.357,47.359
	c9.26,14.031,17.812,28.545,26.301,43.063c14.783,25.282,34.881,43.18,63.924,51.093c28.996,7.899,58.23,10.595,88.031,8.654
	c14.287-0.93,28.531-2.901,42.825-3.271c15.983-0.416,31.999,0.493,48.004,0.742c18.719,0.291,37.475,0.58,55.831-3.89
	c17.142-4.171,32.749-12.128,47.998-20.701c22.702-12.761,45.042-26.17,67.9-38.639c7.872-4.295,16.669-7.167,25.336-9.678
	c12.646-3.664,24.647,2.302,28.851,14.657c4.374,12.86,7.96,26.026,11.168,39.235c4.521,18.629,10.956,36.503,21.435,52.51
	c4.306,6.574,10.499,12.313,16.864,17.045c9.614,7.148,20.35,4.234,30.42,0.394c13.013-4.963,25.611-11.044,38.714-15.731
	c33.281-11.904,66.639-11.595,100.622-1.572c24.727,7.293,43.609,20.844,57.281,42.503c16.595,26.293,37.49,49.261,57.441,72.948
	c12.252,14.543,24.886,28.835,32.95,46.357c16.328,35.483,10.194,67.835-14.034,97.392c-14.43,17.602-33.13,30.15-52.607,41.223
	c-20.569,11.695-41.452,23.047-63.005,32.75c-46.732,21.039-78.794,55.232-98.786,102.221
	c-20.607,48.428-40.79,96.977-58.271,146.629c-3.75,10.65-8.264,21.012-16.449,29.229c-20.687,20.77-45.831,14.814-61.357-5.344
	c-8.658-11.238-12.136-25.008-16.396-38.285c-5.961-18.58-11.406-37.414-22.936-53.553c-11.607-16.252-25.741-29.49-45.872-34.271
	c-26.581-6.312-49.761,0.785-70.44,18.178c-11.057,9.301-22.305,18.52-34.314,26.502c-13.432,8.924-27.808,5.574-36.275-7.992
	c-9.519-15.246-17.999-31.141-27.163-46.615c-16.062-27.121-36.377-50.057-64.932-64.662c-17.503-8.955-36.52-13.451-55.314-18.559
	c-20.488-5.564-41.37-10.859-57.582-25.314c-13.658-12.178-26.048-25.846-38.398-39.4c-15.241-16.725-32.432-30.211-54.381-36.947
	c-15.179-4.656-30.833-5.357-46.488-5.613c-18.876-0.311-37.766-0.346-56.639,0.016c-55.667,1.074-100.119-21.355-134.777-64.131
	c-14.129-17.438-25.921-36.387-35.26-56.911c-12.408-27.274-15.007-55.06-7.521-84.18c4.131-16.072,7.191-32.49,9.594-48.92
	c4.242-28.994-3.355-55.613-19.41-79.639c-14.294-21.391-29.697-42.037-44.45-63.125c-24.724-35.336-46.975-72.223-66.298-110.74
	c-5.465-10.893-8.277-23.463-10.387-35.598c-2.276-13.092,5.161-23.729,17.858-28.166c9.663-3.376,19.544-6.147,29.392-8.962
	c26.57-7.592,45.638-24.327,59.118-48.017c1.222-2.147,2.935-4.014,4.42-6.01c0.787,0.573,1.573,1.146,2.363,1.717
	c-5.647,8.16-10.742,16.777-17.052,24.387C257.757-5.843,239.923,4.713,218.7,9.712c-7.834,1.845-15.532,4.391-23.132,7.073
	c-13.688,4.833-19.368,15.958-16.673,30.376c3.687,19.71,12.485,37.237,22.697,54.091c16.91,27.909,33.771,55.873,51.617,83.184
	c12.688,19.416,27.293,37.567,40.426,56.708c10.588,15.431,19.504,31.847,23.866,50.322c3.581,15.165,3.536,30.554,1.113,45.738
	c-2.644,16.575-6.114,33.062-10.131,49.363c-6.31,25.625-3.294,50.161,7.171,73.979c12.654,28.795,29.558,54.891,52.196,76.809
	c30.454,29.486,67.031,44.932,109.647,45.234c23.432,0.164,46.865,0.213,70.296,0.076c40.774-0.236,73.467,15.996,99.501,47.164
	c10.006,11.977,21.008,23.268,32.545,33.783c14.514,13.223,32.913,19.062,51.468,24.438c19.172,5.551,38.591,10.734,57.036,18.215
	c28.896,11.723,49.93,33.383,66.41,59.303c9.911,15.592,18.488,32.027,27.73,48.047c1.594,2.764,3.488,5.357,5.303,7.992
	c7.627,11.084,19.911,14.34,31.258,6.891c10.659-7,20.594-15.162,30.476-23.264c12.191-10,24.68-19.426,40.539-22.543
	c28.957-5.693,53.764,1.629,74.301,23.484c14.733,15.678,22.817,34.619,29.523,54.502c4.503,13.354,8.974,26.74,14.12,39.852
	c5.401,13.756,15.995,22.109,30.073,26.223c10.188,2.979,26.037-3.309,34.381-13.648c8.077-10.012,12.301-21.91,16.503-33.787
	c18.621-52.621,39.308-104.408,63.143-154.893c19.186-40.639,50.737-68.496,91.189-86.926
	c31.548-14.373,62.341-30.105,90.396-50.693c16.75-12.291,30.971-26.666,40-45.898c13.093-27.883,9.763-54.78-5.713-79.934
	c-9.645-15.675-21.793-29.92-33.705-44.058c-19.762-23.451-39.379-46.958-56.162-72.693c-13.12-20.118-32.801-29.942-55.288-35.954
	c-20.432-5.462-40.88-8.048-61.96-5.203c-19.544,2.638-37.759,9.174-55.644,17.207c-8.682,3.9-17.88,6.796-27.058,9.397
	c-8.593,2.437-16.53,0.039-23.889-5.03c-11.444-7.882-17.76-19.436-23.83-31.389c-8.546-16.835-12.292-35.159-17.297-53.109
	c-2.255-8.083-4.349-16.236-7.156-24.128c-3.979-11.18-13.969-16.175-25.43-13.285c-18.195,4.587-33.902,14.425-49.985,23.542
	c-21.187,12.012-42.457,23.885-63.881,35.463c-18.938,10.236-39.578,13.961-60.878,14.007c-15.5,0.032-31.007-1.116-46.497-0.855
	c-15.977,0.269-31.953,1.338-47.894,2.528c-39.558,2.954-78.699,2.535-116.877-10.507c-25.309-8.645-43.265-25.638-56.099-48.235
	c-12.488-21.988-24.515-44.231-42.238-62.572c-10.059-10.41-20.739-20.234-31.363-30.085
	c-10.812-10.029-18.848-21.807-21.036-36.457c-1.578-10.566-2.647-21.419,0.901-32.039c3.893-11.647,11.867-20.211,20.801-28.03
	C579.292,17.422,594.991,8.3,611.43,0.443c19.239-9.196,37.998-19.892,58.056-26.742c22.791-7.783,46.74-12.243,70.287-17.715
	c9.917-2.305,20.09-3.501,30.146-5.2C770.042-48.522,770.165-47.83,770.288-47.137z"/>
<path fill-rule="evenodd" clip-rule="evenodd" d="M699.821-47.337c-6.432,1.701-12.895,3.294-19.291,5.118
	c-26.451,7.542-51.104,19.556-75.842,31.223c-17.146,8.084-34.059,16.783-50.477,26.248c-13.695,7.896-25.475,18.383-31.699,33.557
	c-5.904,14.388-5.086,29.295-2.496,44.249c4.611,26.631,17.45,48.788,37.807,66.165c24.834,21.198,42.432,47.589,57.741,75.918
	c10.123,18.733,23.073,35.502,43.191,43.752c14.636,6.002,30.431,9.448,45.951,12.958c18.678,4.223,37.585,7.479,56.448,10.834
	c20.426,3.632,40.967,2.704,61.542,1.189c25.222-1.855,50.5-2.954,75.711-4.893c19.91-1.531,40.143-1.703,58.719-10.77
	c19.625-9.578,39.152-19.372,58.997-28.478c10.645-4.886,21.644-9.284,32.874-12.554c17.613-5.129,33.109,1.195,42.27,17.17
	c7.187,12.529,13.138,25.76,19.726,38.636c7.419,14.504,14.248,29.376,22.702,43.256c4.129,6.78,10.567,12.968,17.371,17.117
	c10.413,6.351,21.232,2.937,30.785-3.497c12.002-8.083,23.613-16.742,35.579-24.877c44.13-29.999,101.255-24.008,137.744,5.126
	c8.963,7.157,16.351,16.445,23.802,25.31c20.698,24.621,40.837,49.712,61.605,74.271c14.664,17.344,25.276,36.375,28.601,59.128
	c1.853,12.685-1.683,24.398-5.956,35.968c-6.53,17.688-18.994,30.715-33.543,42.102c-19.591,15.334-41.259,27.191-63.461,38.148
	c-18.094,8.928-36.88,16.637-54.286,26.736c-26.791,15.539-47.021,38.209-61.745,65.275
	c-20.896,38.402-40.696,77.398-61.365,115.928c-6.749,12.58-14.748,24.492-22.188,36.703c-0.437,0.717-0.903,1.43-1.441,2.072
	c-13.357,16.002-28.439,15.199-39.625-1.676c-7.062-10.656-13.35-21.822-20.142-32.66c-15.412-24.592-34.845-44.916-61.739-57.062
	c-19.548-8.83-40.024-11.957-61.151-7.953c-14.334,2.715-28.887,5.326-42.573,10.158c-21.489,7.59-38.062,0.836-52.912-14.232
	c-13.241-13.436-26.283-27.076-39.748-40.283c-20.236-19.85-44.682-32.695-71.461-41.205c-16.797-5.338-33.802-10.029-50.735-14.939
	c-23.925-6.938-42.493-21.881-59.608-39.225c-10.173-10.311-20.212-20.924-31.482-29.938c-17.443-13.953-37.802-22.031-60.26-23.15
	c-25.406-1.264-50.856-2.188-76.287-2.191c-24.078-0.008-47.686-1.502-70.623-9.748c-33.331-11.988-58.534-33.896-78.213-62.698
	c-13.191-19.309-23.141-40.037-27.941-63.207c-3.596-17.352-1.178-34.177,2.109-51.08c2.471-12.708,5.4-25.332,7.694-38.071
	c6.143-34.098-1.003-65.674-19.267-94.758c-15.646-24.913-31.724-49.558-47.789-74.205c-17.015-26.102-30.586-53.684-38.429-84.021
	c-4.979-19.264-0.182-35.651,13.052-49.784c9.09-9.708,18.6-19.04,28.191-28.263c16.381-15.757,27.678-34.56,34.67-56.09
	c0.477-1.467,1.7-2.69,3.326-3.546c-5.205,19.625-13.092,37.791-27.203,52.586c-10.469,10.978-20.93,21.994-31.936,32.423
	c-17.376,16.469-22.584,35.125-15.404,58.552c9.39,30.642,24.391,58.16,41.728,84.738c15.163,23.246,30.395,46.469,44.777,70.198
	c8.81,14.538,15.686,30.259,18.019,47.32c2.959,21.61,0.635,42.984-4.024,64.234c-3.095,14.112-6.097,28.331-7.708,42.663
	c-2.317,20.62,3.259,40.101,11.836,58.664c12.761,27.623,30.309,51.69,54.664,70.293c28.703,21.93,61.666,30.635,97.337,30.666
	c22.767,0.021,45.546-0.254,68.3,0.359c30.889,0.834,60.34,7.164,84.482,28.041c12.352,10.682,23.881,22.375,35.223,34.15
	c17.738,18.412,39.579,28.943,63.756,35.992c21.253,6.197,42.59,12.494,63.123,20.67c24.449,9.738,44.258,26.627,62.109,45.826
	c9.301,10.004,18.68,19.98,28.631,29.32c10.496,9.85,22.464,16.885,37.845,13.268c5.224-1.229,10.389-2.742,15.513-4.34
	c16.28-5.08,32.803-9.088,49.896-9.715c35.951-1.309,65.274,13.248,90.063,38.342c16.291,16.488,27.124,36.773,39.23,56.178
	c1.157,1.852,2.33,3.697,3.467,5.562c9.483,15.551,24.954,16.199,35.237,1.041c7.077-10.434,13.88-21.133,19.834-32.23
	c20.751-38.678,41.014-77.615,61.585-116.389c15.455-29.127,36.467-53.516,64.682-70.734c13.849-8.449,29.204-14.428,43.837-21.602
	c26.444-12.969,52.496-26.533,75.996-44.605c20.021-15.396,32.677-35.154,36.925-59.932c2.159-12.596-1.771-24.752-5.856-36.526
	c-5.577-16.08-16.765-28.644-27.339-41.518c-21.699-26.422-43.223-52.994-65.264-79.127c-18.964-22.485-43.986-33.393-72.861-37.062
	c-36.521-4.641-66.284,9.816-94.031,31.261c-7.421,5.735-15.391,10.911-23.623,15.403c-12.095,6.599-25.241,4.39-35.419-4.986
	c-9.989-9.202-16.343-20.851-22.184-32.871c-9.336-19.201-18.666-38.407-28.211-57.505c-5.688-11.383-14.08-20.718-27.304-21.411
	c-8.576-0.45-17.905,1.571-25.928,4.854c-18.319,7.498-36.034,16.475-54.016,24.806c-11.729,5.435-23.246,11.441-35.301,16.027
	c-16.266,6.186-33.701,6.051-50.802,7.297c-24.381,1.774-48.8,3.061-73.168,4.978c-27.721,2.18-55.221,1.457-82.504-4.326
	c-20.557-4.358-41.148-8.534-61.725-12.796c-31.49-6.522-52.529-26.031-67.984-53.316c-9.344-16.498-19.203-32.902-30.68-47.936
	c-9.119-11.945-20.869-21.931-31.762-32.465c-23.018-22.265-33.88-49.752-35.209-81.288c-1.119-26.572,11.495-46.422,33.422-59.405
	c22.361-13.243,45.732-24.947,69.312-35.923c19.904-9.265,40.639-16.799,61.229-24.505c6.447-2.412,13.615-2.895,20.454-4.262
	C699.488-48.538,699.654-47.937,699.821-47.337z"/>
<path fill-rule="evenodd" clip-rule="evenodd" d="M642.696-47.798c-30.727,13.513-61.467,26.991-92.17,40.556
	c-13.25,5.854-26.038,12.436-37.482,21.567c-15.365,12.26-22.664,28.121-22.389,47.505c0.314,22.201,4.951,43.768,10.477,65.153
	c4.697,18.172,11.051,35.768,22.021,51.131c5.838,8.172,12.737,15.703,19.87,22.81c19.995,19.924,34.796,43.593,49.827,67.165
	c8.919,13.985,19.078,26.911,33.861,35.433c10.316,5.947,21.678,8.466,33.203,9.481c33.281,2.929,65.973,8.396,98.013,18.205
	c27.021,8.271,54.593,8.391,82.444,3.473c19.542-3.451,39.287-6.046,59.051-7.853c31.583-2.888,61.089-12.258,89.903-25.075
	c13.888-6.177,28.523-11.072,43.252-14.866c18.216-4.691,33.473,1.633,45.104,16.432c11.533,14.671,19.339,31.469,27.392,48.124
	c4.902,10.135,9.803,20.271,14.745,30.386c4.069,8.328,9.889,15.246,17.439,20.588c15.073,10.666,30.965,9.545,47.01-4.25
	c8.646-7.434,16.354-15.995,24.217-24.299c12.617-13.326,26.446-24.948,43.55-32.122c26.011-10.909,51.351-8.012,76.111,4.088
	c14.748,7.207,27.019,17.615,37.595,30.075c21.253,25.037,42.654,49.951,63.64,75.212c10.245,12.33,16.708,26.71,20.518,42.345
	c3.529,14.489-0.588,27.655-6.305,40.575c-8.176,18.48-23.106,30.631-39.289,41.652c-22.206,15.125-46.319,26.564-70.928,37.018
	c-25.043,10.641-48.044,24.09-66.17,44.914c-12.996,14.928-23.896,31.266-33.677,48.404c-13.164,23.074-25.573,46.666-42.341,67.42
	c-6.405,7.928-13.684,15.398-21.606,21.787c-13.118,10.58-27.67,12.506-42.494,3.012c-13.019-8.338-25.991-16.764-38.76-25.477
	c-24.626-16.805-51.089-29.252-80.776-33.611c-11.473-1.684-23.163-1.881-34.763-2.668c-12.612-0.855-25.292-1.105-37.837-2.537
	c-16.324-1.859-30.062-9.877-43.171-19.428c-19.037-13.865-37.953-28.006-57.84-40.576c-24.724-15.625-52.156-25.58-80.296-33.209
	c-29.774-8.068-55.59-22.898-77.558-44.262c-20.354-19.799-43.379-35.182-70.32-44.154c-7.533-2.512-15.789-3.607-23.764-3.891
	c-31-1.1-62.016-1.965-93.029-2.238c-30.771-0.27-60.229-5.668-85.92-23.256c-38.699-26.491-61.628-63.158-64.632-110.426
	c-0.858-13.526,2.812-27.368,4.651-41.032c2.021-15.008,4.847-29.925,6.389-44.979c2.886-28.164-4.643-54.079-18.92-78.147
	c-13.812-23.283-28.245-46.2-41.862-69.594c-13.202-22.679-22.979-46.725-26.507-73.013c-2.246-16.746,1.822-32.192,9.737-46.63
	c8.489-15.48,17.372-30.768,26.702-45.754c11.122-17.862,17.467-37.356,21.691-57.736c0.295-1.418,1.275-2.694,1.938-4.037
	c0.606,0.221,1.214,0.445,1.821,0.666c-1.057,4.954-2.131,9.903-3.164,14.861c-4.58,21.953-15.205,41.194-26.732,60.071
	c-6.484,10.62-12.689,21.415-18.863,32.221c-11.293,19.771-12.867,40.48-7.016,62.407c7.12,26.685,19.824,50.585,34.015,73.968
	c13.079,21.549,26.21,43.114,38.097,65.326c13.1,24.473,15.059,51.027,10.839,78.165c-3.077,19.79-6.674,39.509-9.249,59.363
	c-3.146,24.25,3.307,46.777,14.705,67.938c17.307,32.135,41.994,56.031,77.2,68.035c23.058,7.863,46.772,8.574,70.825,8.326
	c22.74-0.23,45.506,0.941,68.246,1.887c9.559,0.395,19.508,0.348,28.531,3.025c26.449,7.85,50.177,20.955,70.13,40.414
	c20.069,19.574,42.293,35.992,69.156,45.113c14.624,4.967,29.536,9.09,44.134,14.123c32.777,11.301,62.092,28.869,89.348,50.102
	c7.689,5.988,15.799,11.436,23.539,17.359c16.509,12.646,35.536,16.924,55.831,17.531c13.139,0.391,26.273,1.076,39.392,1.9
	c30.531,1.918,58.602,11.629,84.402,27.791c14.238,8.918,27.929,18.709,42.048,27.826c5.336,3.445,11.083,6.301,16.812,9.074
	c7.536,3.654,15.03,2.432,22.363-0.947c13.627-6.285,23.77-16.691,31.739-28.898c13.604-20.83,26.668-42.033,39.398-63.414
	c14.532-24.402,30.004-47.955,51.818-66.66c15.006-12.867,32.441-21.508,50.396-29.266c29.683-12.822,58.676-26.814,84.333-46.936
	c17.421-13.656,27.807-31.41,31.431-52.965c1.996-11.86-2.467-22.97-6.911-33.704c-6.063-14.652-16.097-26.768-26.293-38.654
	c-19.085-22.25-38.075-44.596-57.662-66.402c-14.925-16.612-33.906-27.007-55.757-31.466c-25.497-5.203-48.851,1.166-68.75,17.191
	c-13.561,10.923-25.101,24.333-37.855,36.3c-5.238,4.916-10.902,9.629-17.06,13.275c-16.489,9.768-32.426,7.51-46.819-5.255
	c-9.268-8.217-14.139-19.096-19.593-29.726c-10.12-19.73-20.016-39.591-30.741-58.989c-5.34-9.652-13.042-17.571-23.891-21.581
	c-12.137-4.486-24.087-2.257-35.529,1.991c-20.925,7.768-41.57,16.282-62.32,24.516c-15.298,6.07-31.377,8.734-47.553,10.944
	c-24.35,3.327-48.777,6.138-73.05,9.949c-29.822,4.682-59.068,3.045-87.869-5.92c-23.054-7.176-46.574-11.787-70.604-14.204
	c-12.873-1.295-25.844-2.749-38.412-5.667c-19.711-4.575-33.598-17.752-44.74-33.976c-7.52-10.953-14.853-22.045-21.914-33.299
	c-9.82-15.649-21.205-30.108-34.545-42.754c-20.456-19.392-33.643-42.891-40.314-69.842c-4.832-19.522-8.32-39.436-11.337-59.337
	c-5.001-33.013,9.39-56.733,38.022-71.804c19.59-10.311,39.98-19.125,60.178-28.247c15.304-6.913,30.823-13.354,46.342-19.773
	c3.104-1.283,6.641-1.521,9.977-2.241C642.745-48.383,642.72-48.09,642.696-47.798z"/>
<path fill-rule="evenodd" clip-rule="evenodd" d="M597.712-47.122c-14.742,5.966-29.434,12.057-44.237,17.869
	c-19.06,7.481-38.544,13.93-56.093,24.875c-14.844,9.259-26.621,21.045-32.844,37.719c-4.171,11.177-3.441,22.647-0.858,33.879
	c5.306,23.089,11.321,46.013,16.771,69.07c3.208,13.572,6.144,27.223,8.744,40.924c3.55,18.693,12.008,34.677,26.069,47.365
	c24.635,22.225,43.844,48.731,62.114,76.141c5.653,8.48,12.665,16.206,19.88,23.455c8.904,8.948,21.076,11.816,32.918,14.135
	c8.844,1.733,18.169,2.694,27.107,1.943c31.249-2.624,60.855,3.589,90.021,14.051c12.769,4.581,25.822,8.827,39.099,11.421
	c18.318,3.579,36.398-0.099,54.471-4.173c24.923-5.618,50.078-10.268,75.224-14.836c21.896-3.979,43.171-9.993,64.207-17.175
	c13.483-4.604,27.074-9.417,41.012-12.05c21.848-4.126,39.437,4.864,50.716,23.365c10.38,17.028,18.705,35.318,27.726,53.16
	c5.665,11.206,12.268,21.61,21.483,30.323c18.12,17.133,42.004,19.983,62.137,5.172c12.099-8.899,22.625-20.065,33.23-30.829
	c11.109-11.276,21.377-23.49,35.291-31.477c28.144-16.154,55.566-13.754,82.265,3.854c13.922,9.183,25.792,20.572,36.467,33.261
	c15.066,17.911,30.26,35.726,44.907,53.975c8.008,9.977,12.459,21.969,15.239,34.357c3.662,16.317-1.53,31.012-10.072,44.616
	c-10.253,16.328-25.496,27.346-42.1,36.139c-19.737,10.449-39.959,20.027-60.256,29.359c-34.738,15.973-61.303,40.924-81.932,72.699
	c-12.916,19.895-25.386,40.109-39.095,59.445c-11.338,15.992-25.726,28.93-45.079,35.02c-6.928,2.18-13.732,2.064-20.817,0.068
	c-21.574-6.072-40.628-17.682-60.638-27.162c-26.205-12.412-53.635-20.852-82.303-24.422c-31.686-3.947-60.377-15.279-87.691-31.256
	c-33.681-19.699-68.908-36.312-104.406-52.52c-32.831-14.992-65.73-30.205-95.963-50.203c-16.974-11.227-32.856-24.109-49.887-35.24
	c-17.089-11.174-35.38-20.406-56.085-22.697c-13.707-1.518-27.544-2.33-41.336-2.545c-24.783-0.389-49.592,0.436-74.361-0.23
	c-24.143-0.646-47.482-5.455-68.373-18.514c-24.448-15.283-38.297-38.501-48.538-64.597c-8.786-22.383-7.962-45-3.783-68.067
	c3.384-18.688,6.845-37.439,8.622-56.319c2.076-22.021-4.105-42.886-14.357-62.156c-12.393-23.297-26.271-45.801-38.842-69.009
	c-13.74-25.366-22.674-52.151-20.598-81.623c1.527-21.657,8.784-41.536,20.293-59.59c16.839-26.417,24.527-55.463,27.444-86.169
	c0.11-1.175,0.05-2.444,0.496-3.485c0.374-0.872,1.376-1.473,2.099-2.194c0.391,0.931,1.216,1.912,1.113,2.784
	c-2.383,20.064-4.936,40.167-12.76,58.975c-4.371,10.508-9.566,20.76-15.301,30.595c-13.703,23.497-22.338,48.207-20.276,75.821
	c1.369,18.351,6.305,35.903,14.808,52.067c11.268,21.42,23.723,42.214,35.65,63.287c10.832,19.134,20.393,38.938,22.578,61.046
	c1.214,12.282,0.604,24.949-0.87,37.24c-2.041,17.008-5.668,33.826-8.628,50.724c-4.358,24.885,0.87,48.117,11.887,70.434
	c10.291,20.846,24.131,38.424,44.753,49.991c15.846,8.887,33.067,13.945,50.964,14.633c30.812,1.184,61.701,1.662,92.524,0.99
	c39.772-0.865,74.606,11.678,106.374,34.791c17.539,12.758,34.703,26.426,53.611,36.824c30.881,16.984,62.707,32.369,94.768,47.045
	c29.693,13.596,58.49,28.764,87.043,44.504c17.647,9.73,35,20.363,54.854,25.031c15.705,3.691,31.657,6.404,47.572,9.115
	c29.83,5.084,57.386,16.367,84.224,29.871c14.521,7.307,28.916,14.781,44.756,19.355c11.464,3.311,20.916-0.217,30.274-5.291
	c15.788-8.564,27.467-21.619,37.272-36.355c13.604-20.447,26.657-41.264,40.396-61.617c21.154-31.336,50.318-52.836,84.604-68.021
	c22.269-9.863,44.729-19.439,64.939-33.342c11.468-7.889,21.782-16.91,29.094-29.018c11.609-19.223,11.696-38.684,2.068-58.696
	c-6.656-13.832-16.063-25.674-26.137-36.994c-15.767-17.719-31.318-35.693-48.068-52.455c-12.09-12.102-26.906-20.948-44.051-24.359
	c-22.847-4.545-43.231,1.79-60.562,16.762c-10.421,9.005-19.473,19.58-29.336,29.25c-7.93,7.774-15.65,15.888-24.345,22.732
	c-22.25,17.509-50.66,16.061-70.233-3.236c-10.655-10.502-17.897-22.968-24.367-36.175c-7.244-14.79-14.24-29.759-22.49-43.984
	c-14.239-24.546-35.98-31.727-63.029-22.88c-24.251,7.93-48.574,15.793-73.239,22.253c-17.522,4.59-35.716,6.559-53.523,10.131
	c-18.936,3.799-37.717,8.367-56.66,12.126c-21.784,4.323-43.053,2.124-64.133-5.071c-19.045-6.5-38.312-12.594-57.861-17.287
	c-10.478-2.516-21.757-2.305-32.669-2.244c-15.67,0.084-31.177,0.628-46.729-2.947c-19.418-4.463-33.54-15.66-44.748-31.351
	c-11.244-15.74-21.797-32.011-33.709-47.222c-8.479-10.822-18.188-20.828-28.267-30.213c-17.398-16.198-27.881-35.578-32.72-58.884
	c-6.656-32.062-14.684-63.84-22.174-95.726c-2.867-12.204-5.429-24.564-2.924-37.011c3.475-17.248,13.453-30.521,27.395-41.013
	c17.172-12.926,37.008-20.366,56.789-27.99c14.725-5.675,29.318-11.685,44.039-17.373c3.029-1.17,6.355-1.576,9.543-2.333
	C597.44-48.18,597.575-47.651,597.712-47.122z"/>
<path fill-rule="evenodd" clip-rule="evenodd" d="M366.075-48.537c0.602,0.872,1.611,1.686,1.746,2.625
	c2.41,16.663,5.45,33.287,6.648,50.041c0.428,5.982-2.503,13.029-5.898,18.304c-9.549,14.842-20.331,28.884-30.27,43.485
	c-12.854,18.883-21.998,39.214-19.621,62.741c1.912,18.938,7.881,36.998,17.1,53.512c10.235,18.333,22.126,35.734,33.1,53.661
	c7.451,12.171,15.294,24.202,18.603,38.393c3.844,16.484,3.708,33.074,1.089,49.696c-3.74,23.755-9.159,47.376-10.996,71.274
	c-3.275,42.621,20.261,85.728,67.441,100.364c21.968,6.815,43.975,6.52,66.495,3.794c21.196-2.564,42.567-4.347,63.903-4.949
	c23.99-0.678,46.302,7.179,66.623,19.223c20.789,12.322,41.234,25.479,60.555,39.971c27.272,20.465,56.654,36.328,88.269,48.965
	c39.251,15.688,76.191,36.168,111.804,58.941c21.337,13.645,44.727,22.205,68.95,28.912c43.41,12.025,86.163,25.936,127.749,43.395
	c9.375,3.938,19.436,6.65,29.44,8.582c20.15,3.893,36.516-4.92,51.063-17.613c11.943-10.424,19.868-24.111,28.409-37.23
	c9.737-14.951,19-30.232,29.16-44.887c18.885-27.242,44.797-45.555,75.214-58.131c21.414-8.852,42.98-17.525,62.442-30.41
	c15.261-10.105,27.106-22.799,32.758-40.885c3.625-11.6,0.219-21.959-3.38-32.417c-4.905-14.262-14.417-25.764-23.702-37.305
	c-15.027-18.68-30.952-36.495-51.22-49.771c-10.471-6.859-21.402-12.84-34.287-13.632c-17.344-1.065-32.452,5.084-44.453,16.956
	c-11.932,11.8-22.354,25.127-33.474,37.754c-5.345,6.07-10.548,12.291-16.202,18.064c-15.406,15.735-34.47,18.83-55.413,15.936
	c-22.904-3.166-38.486-17.296-50.874-34.952c-8.927-12.722-15.491-27.097-23.149-40.711c-3.955-7.034-7.599-14.285-12.076-20.975
	c-13.446-20.094-32.314-27.507-56.047-21.923c-21.746,5.117-43.303,11.061-65.083,16.03c-19.003,4.334-38.364,7.159-57.266,11.869
	c-18.221,4.542-36.041,10.689-54.062,16.05c-27.998,8.326-54.301,3.442-80.264-8.891c-13.26-6.298-27.541-10.767-41.745-14.665
	c-16.198-4.444-32.317-1.179-48.319,3.024c-12.65,3.321-25.545,5.818-38.435,8.091c-14.065,2.48-25.492-2.175-33.794-14.1
	c-13.075-18.779-26.652-37.221-39.277-56.295c-13.773-20.809-32.146-37.017-50.422-53.496
	c-11.104-10.012-22.902-19.969-28.036-34.557c-3.425-9.729-5.308-20.136-6.747-30.398c-3.227-22.996-4.758-46.266-8.822-69.096
	c-4.504-25.299-14.67-48.869-26.595-71.62c-5.227-9.973-10.843-19.803-10.289-31.758c0.352-7.584,2.769-13.858,8.028-19.515
	c12.143-13.057,27.28-21.63,43.553-27.553c22.053-8.025,44.72-14.38,67.19-21.227c2.559-0.779,5.561-0.105,8.557,0.71
	c-6.84,2.019-13.636,4.21-20.53,6.025c-24.391,6.421-48.633,13.101-71.029,25.27c-10.523,5.718-19.929,12.62-27.617,21.698
	c-7.002,8.268-6.359,18.124-3.008,27.306c3.552,9.73,8.703,18.885,13.262,28.239c15.734,32.287,25.031,66.234,27.388,102.161
	c0.97,14.776,2.882,29.521,5.076,44.175c1.887,12.604,7.468,23.717,16.661,32.741c8.412,8.258,16.633,16.768,25.581,24.415
	c19.807,16.931,35.737,36.875,49.608,58.871c9.582,15.2,20.846,29.348,31.495,43.868c7.378,10.061,17.703,13.2,29.528,10.992
	c14.199-2.65,28.527-5.096,42.352-9.152c22.562-6.619,44.262-4.338,65.691,3.84c13.173,5.025,26.088,10.722,39.174,15.982
	c20.771,8.351,41.686,7.35,62.835,1.221c23.71-6.87,47.413-13.858,71.382-19.718c33.931-8.296,68.204-15.183,102.135-23.476
	c25.783-6.3,49.337,2.892,62.718,26.547c7.61,13.457,14.295,27.432,21.703,41.006c10.162,18.62,22.64,35.811,42.132,45.08
	c24.577,11.687,54.813,10.172,74.603-13.409c12.984-15.472,25.763-31.155,39.443-45.997c14.379-15.599,32.023-25.12,54.091-23.458
	c14.438,1.087,26.505,8.18,38.039,16.178c23.034,15.974,40.575,37.319,57.388,59.335c8.021,10.504,13.98,21.929,18.136,34.651
	c5.652,17.312,1.119,32.152-8.436,46.212c-11.073,16.287-27.327,26.295-44.56,34.619c-19.356,9.344-39.115,17.855-58.657,26.814
	c-26.526,12.162-46.559,31.74-62.588,55.652c-14.14,21.092-27.354,42.826-41.999,63.553c-12.139,17.178-28.777,28.711-50.094,31.953
	c-13.244,2.014-25.758-2.01-37.924-6.484c-24.576-9.041-48.752-19.209-73.514-27.686c-22.547-7.723-45.532-14.244-68.537-20.518
	c-25.559-6.973-49.052-18.135-71.257-32.348c-39.653-25.371-81.796-45.875-125.504-63.143
	c-22.988-9.082-42.814-23.068-62.539-37.459c-22.149-16.156-44.236-32.338-68.803-44.934c-30.273-15.52-61.891-18.81-95.168-14.312
	c-20.495,2.771-41.263,5.38-61.863,5.063c-29.986-0.46-57.412-9.947-78.125-33.076c-22.437-25.055-29.934-54.809-24.94-87.755
	c3.176-20.953,7.237-41.771,10.455-62.719c4.302-28.006-0.354-54.141-16.423-78.077c-11.721-17.458-23.082-35.197-33.693-53.342
	c-9.814-16.781-16.168-35.099-19.475-54.319c-4.256-24.734,3.534-46.646,16.872-66.892c8.788-13.34,18.399-26.136,27.583-39.218
	c5.327-7.587,11.279-15.135,10.711-25.029c-0.52-9.063-1.924-18.084-3.161-27.093c-0.918-6.66-2.221-13.267-3.286-19.908
	c-0.254-1.582-0.238-3.205-0.347-4.809C365.166-48.177,365.62-48.357,366.075-48.537z"/>
<path fill-rule="evenodd" clip-rule="evenodd" d="M931.397-47.154c-14.869,8.445-29.714,16.935-44.614,25.327
	C861.595-7.643,836.04,5.928,811.321,20.885c-10.954,6.629-20.426,15.797-30.211,24.227c-5.242,4.518-7.139,11.167-6.967,17.837
	c0.093,3.562,1.65,7.598,3.789,10.508c12.18,16.592,28.48,27.688,48.231,33.104c24.126,6.614,48.272,13.405,72.772,18.329
	c20.849,4.191,42.087,3.784,63.284-0.145c25.535-4.731,48.25-16.454,71.362-27.188c28.229-13.108,56.601-25.783,86.842-33.563
	c23.108-5.946,46.58-10.364,70.408-5.687c10.736,2.108,21.929,5.175,31.226,10.667c19.77,11.675,25.008,31.169,23.041,52.833
	c-1.475,16.249-4.068,32.392-5.783,48.622c-2.785,26.356,10.198,40.303,34.361,48.776c21.103,7.4,43.193,6.663,65.075,5.458
	c19.166-1.055,38.244-3.708,57.408-4.759c15.915-0.874,31.3,1.834,44.027,12.602c10.587,8.957,14.262,21.523,15.912,34.461
	c2.006,15.694,3.254,31.525,3.964,47.337c0.992,22.078,8.944,41.224,22.606,58.221c12.977,16.146,26.351,31.975,39.115,48.283
	c19.165,24.483,30.276,52.414,32.345,83.411c2,29.988-7.646,56.839-23.896,81.865c-15.089,23.238-35.311,41.164-57.514,56.838
	c-32.42,22.889-65.489,44.863-98.415,67.033c-14.821,9.979-29.863,19.67-41.392,33.604c-12.691,15.342-20.602,33.078-24.454,52.523
	c-4.936,24.906-8.96,50.004-14.327,74.812c-4.408,20.369-10.704,40.324-15.246,60.666c-4.968,22.242-5.438,44.912-0.604,67.166
	c2.715,12.502,9.929,23.416,18.423,33.172c3.29,3.781,6.662,7.492,9.997,11.234c-0.249,0.398-0.5,0.797-0.749,1.195
	c-1.493-0.795-3.249-1.312-4.438-2.428c-11.51-10.809-19.384-24.133-25.434-38.488c-1.974-4.68-2.699-10.105-2.944-15.242
	c-0.548-11.445-1.625-23.062-0.304-34.352c1.871-15.975,4.583-32.035,8.947-47.492c9.305-32.947,16.282-66.34,21.371-100.119
	c6.096-40.477,26.176-71.244,60.696-93.291c30.896-19.73,61.575-39.861,91.58-60.912c19.245-13.504,38.5-27.367,54.397-44.988
	c20.192-22.379,35.051-47.617,40.116-77.904c2.894-17.312,0.838-34.182-3.328-51.016c-7.036-28.43-22.998-51.648-41.843-73.358
	c-9.161-10.554-17.663-21.681-26.416-32.585c-15.657-19.505-21.099-42.258-22.229-66.76c-0.712-15.418-2.103-30.967-5.092-46.08
	c-4.246-21.45-16.228-31.215-37.602-35.25c-14.354-2.71-28.169,0.59-42.213,1.714c-30.769,2.459-61.559,5.117-92.162-1.593
	c-10.705-2.346-20.266-7.229-28.702-14.159c-12.564-10.323-15.778-24.278-14.243-39.598c1.595-15.91,3.995-31.738,5.706-47.638
	c3.445-32.003-11.339-52.161-42.494-59.773c-22.961-5.61-45.552-3.315-68.067,1.617c-33.535,7.349-64.68,21.22-95.732,35.469
	c-19.801,9.087-39.93,17.723-60.533,24.731c-21.67,7.371-44.527,7.403-67.086,4.681c-33.005-3.982-64.795-13.23-95.794-24.97
	c-16.341-6.189-28.836-17.798-38.83-31.967c-5.078-7.198-2.191-21.53,5.461-29.833c12.613-13.686,27.979-23.621,44.068-32.619
	c33.156-18.543,66.25-37.192,99.423-55.7c2.648-1.48,5.717-2.217,8.59-3.298C931.014-48.302,931.205-47.729,931.397-47.154z"/>
<path fill-rule="evenodd" clip-rule="evenodd" d="M1343.079,1044.279c-1.012-0.607-2.39-0.969-2.979-1.854
	c-9.399-14.15-19.671-27.836-27.767-42.705c-10.026-18.41-14.15-38.654-10.157-59.607c3.774-19.785,8.998-39.295,12.823-59.074
	c3.128-16.168,5.232-32.539,7.617-48.846c3.116-21.301,5.3-42.777,16.118-62.121c9.987-17.855,25.011-30.672,41.38-42.125
	c27.147-18.994,54.87-37.191,81.58-56.775c25.809-18.924,50.979-38.77,71.034-64.221c18.007-22.852,31.249-47.773,35.415-76.965
	c3.143-22.027-0.23-43.214-7.445-64.059c-9.094-26.275-24.869-48.345-42.731-69.161c-12.174-14.186-24.363-28.322-32.574-45.393
	c-4.897-10.185-7.812-20.67-7.899-32.036c-0.15-19.727-0.127-39.475-1.098-59.17c-0.771-15.645-4.273-30.8-15.357-42.876
	c-9.951-10.838-23.166-15.004-37.169-17.454c-17.205-3.009-33.915,1.041-50.65,3.681c-23.43,3.698-46.887,6.188-70.28,1.129
	c-15.407-3.333-28.735-11.284-34.332-26.8c-2.852-7.906-3.01-17.181-2.649-25.763c0.712-16.954,3.735-33.859,3.727-50.783
	c-0.005-15.59-5.102-30.165-17.349-41.144c-7.95-7.125-17.6-10.955-27.552-14.235c-26.021-8.571-52.485-7.063-79.024-3.512
	c-34.543,4.621-67.097,16.533-100.035,27.143c-22.667,7.302-45.271,15.575-68.557,19.993c-30.064,5.704-60.713,5.991-90.377-4.244
	c-12.378-4.271-22.978-11.204-32.448-20.617c-8.212-8.161-7.309-24.778-0.885-32.465c13.868-16.599,30.277-30.217,48.403-41.731
	c20.002-12.706,40.367-24.84,60.65-37.099c1.855-1.121,4.262-1.333,6.412-1.965c0.184,0.417,0.365,0.834,0.549,1.252
	c-8.24,5.046-16.586,9.928-24.697,15.168C923.736-18.557,902.37-5.408,882.015,9.148c-9.736,6.963-17.829,16.394-26.016,25.305
	c-7.236,7.878-6.33,19.922,0.873,28.007c13.51,15.157,31.348,21.852,50.575,24.9c38.432,6.093,75.703,0.542,112.295-12.094
	c33.629-11.613,67.062-23.928,101.886-31.744c24.479-5.494,49.25-8.132,74.294-6.507c17.449,1.133,34.201,5.611,49.531,14.294
	c18.503,10.483,25.867,27.837,27.343,47.872c0.708,9.646-0.818,19.464-1.443,29.199c-0.745,11.575-1.919,23.132-2.342,34.717
	c-0.586,16.065,8.074,27.022,21.736,33.466c8.033,3.788,17.184,6.279,26.032,7.05c18.323,1.593,36.623,0.002,54.872-2.977
	c14.742-2.407,29.766-4.699,44.616-4.433c18.883,0.337,36.571,5.958,49.28,21.533c9.453,11.583,12.941,25.535,13.817,39.906
	c1.085,17.827,1.718,35.772,0.95,53.597c-0.952,22.179,6.822,41.014,19.626,58.072c11.214,14.94,23.66,28.951,35.146,43.697
	c16.979,21.799,29.054,46.069,34.61,73.27c7.574,37.069-0.631,71.098-20.432,102.788c-16.845,26.953-39.47,48.363-64.054,68.113
	c-32.598,26.188-67.32,49.303-102.002,72.529c-17.041,11.412-32.434,24.658-42.431,43.174
	c-7.579,14.033-11.085,29.283-12.866,44.826c-3.913,34.158-9.529,67.938-18.65,101.139c-2.479,9.037-3.921,18.475-4.75,27.82
	c-2.365,26.689,6.955,49.832,22.546,70.967c6.053,8.207,11.609,16.785,17.393,25.197
	C1343.994,1043.312,1343.535,1043.796,1343.079,1044.279z"/>
<path fill-rule="evenodd" clip-rule="evenodd" d="M1376.428,1044.253c-1.023-0.953-2.421-1.717-3.014-2.885
	c-8.506-16.791-17.049-33.566-25.283-50.49c-8.062-16.57-9.805-34.309-7.572-52.289c1.925-15.502,5.541-30.791,7.513-46.289
	c2.188-17.199,3.376-34.529,4.972-51.805c1.562-16.916,2.582-33.885,9.949-49.699c8.015-17.207,21.015-30.102,35.849-41.102
	c23.235-17.234,47.109-33.602,70.523-50.6c32.353-23.49,61.53-50.334,85.24-82.727c12.546-17.145,23.579-35.104,30.913-55.275
	c11.124-30.594,10.354-60.967,0.187-91.519c-8.922-26.807-25.565-49.075-41.847-71.538c-9.281-12.804-19.449-24.978-28.447-37.971
	c-13.949-20.148-16.014-43.004-14.272-66.776c1.206-16.463,2.094-33.048,1.484-49.518c-0.739-20.004-8.3-37.684-23.15-51.656
	c-12.186-11.461-27.634-15.451-43.467-18.563c-13.81-2.713-27.487-0.769-41.244,0.438c-18.931,1.66-37.79,4.332-56.942,1.75
	c-23.372-3.15-35.039-21.936-34.701-40.7c0.32-17.796-0.549-35.797-2.979-53.42c-3.735-27.078-19.116-45.475-45.296-54.842
	c-34.768-12.442-70.367-14.57-106.563-9.429c-36.319,5.158-72.494,11.386-108.87,16.083c-21.532,2.78-43.448,4.372-64.886-0.893
	c-13.275-3.26-22.662-14.675-11.812-29.844c1.171-1.637,2.336-3.3,3.684-4.792c15.093-16.694,32.119-31.209,50.352-44.332
	c1.608-1.157,3.842-1.443,6.258-1.157c-7.341,5.759-15.01,11.148-21.946,17.356c-11.282,10.097-22.097,20.715-33.068,31.156
	c-1.083,1.032-1.929,2.333-2.802,3.567c-9.582,13.553-0.5,23.1,10.689,24.955c12.37,2.052,25.125,2.702,37.687,2.486
	c32.452-0.556,64.109-7.682,95.997-12.843c35.522-5.75,71.193-10.126,107.173-5.366c18.553,2.454,36.663,7.567,53.187,16.564
	c19.584,10.661,30.344,28.338,33.173,49.853c2.452,18.644,2.712,37.612,3.27,56.458c0.593,20.008,12.524,33.293,32.405,36.034
	c14.366,1.979,28.531,0.447,42.797-0.527c16.103-1.101,32.37-3.482,48.323-2.231c24.159,1.894,46.596,9.434,61.432,30.896
	c11.254,16.285,15.507,34.567,14.878,54.075c-0.554,17.188-1.413,34.368-2.336,51.542c-1.172,21.855,5.846,41.018,18.589,58.425
	c15.409,21.043,31.089,41.899,46.028,63.269c15.609,22.325,24.208,47.405,27.668,74.442c3.332,26.028-2.772,50.36-13.465,73.475
	c-16.498,35.662-41.581,65.061-70.087,91.764c-25.927,24.289-55.511,43.697-84.22,64.32c-14.861,10.674-29.533,21.768-43.221,33.883
	c-16.99,15.033-25.365,34.779-27.213,57.41c-1.78,21.824-3.493,43.674-6.067,65.416c-1.679,14.172-5.024,28.139-7.309,42.25
	c-3.944,24.367-0.835,47.422,11.796,69.195c7.663,13.207,13.787,27.311,20.566,41.029c0.326,0.662,0.294,1.498,0.431,2.254
	C1377.048,1043.767,1376.737,1044.009,1376.428,1044.253z"/>
<path fill-rule="evenodd" clip-rule="evenodd" d="M978.433,1044.41c-1.196-0.961-2.698-1.713-3.532-2.926
	c-1.993-2.904-3.771-5.969-5.46-9.064c-9.938-18.221-25.844-25.74-45.951-25.488c-12.304,0.156-24.602,0.865-36.908,0.977
	c-34.259,0.303-61.519-13.729-81.834-41.074c-11.643-15.672-21.865-32.463-34.213-47.535
	c-14.602-17.824-30.635-34.498-46.356-51.381c-19.056-20.465-37.8-41.279-57.837-60.752c-23.43-22.764-48.021-44.34-72.281-66.242
	c-9.979-9.01-20.001-18.061-30.745-26.105c-9.651-7.227-21.236-10.422-33.339-9.465c-14.912,1.178-29.922,2.326-44.599,5.059
	c-32.43,6.037-61.279-2.379-87.089-21.273c-30.552-22.359-60.613-45.441-90.112-69.176c-19.354-15.572-34.146-35.408-44.948-57.85
	c-14.949-31.047-29.653-62.221-43.939-93.58c-6.795-14.915-10.984-30.87-11.768-47.241c-0.436-9.094,1.537-18.367,2.979-27.472
	c2.992-18.915,7.113-37.681,9.361-56.674c2.603-21.988-5.959-40.257-19.985-57.272c-38.131-46.254-75.41-93.213-112.894-139.999
	c-9.251-11.548-17.805-23.653-27.02-35.232C46.011,87.112,26.866,76.343,7.92,65.326C2.703,62.293-2.537,59.087-7.091,55.173
	C-21.795,42.541-24.262,25.756-20.505,8.119c4.221-19.81,13.194-37.695,26.268-53.331c1.225-1.465,3.146-2.345,4.744-3.496
	c0.354,0.392,0.71,0.783,1.063,1.174c-2.306,2.909-4.724,5.737-6.896,8.743C-6.907-22.773-15.854-5.414-18.267,14.368
	c-2.139,17.525,2.727,32.777,18.844,42.591c10.045,6.115,20.227,12.005,30.227,18.192c19.275,11.925,33.835,28.665,46.992,46.741
	c39.662,54.494,81.715,107.098,126.012,157.871c16.82,19.278,22.088,41.307,18.685,65.725c-2.411,17.283-5.837,34.465-9.698,51.49
	c-4.012,17.689-1.854,34.711,2.96,51.774c6.526,23.134,18.239,44.031,28.218,65.662c8.66,18.775,17.389,37.574,27.271,55.719
	c13.248,24.324,32.319,43.672,54.545,60.143c26.229,19.441,51.707,39.92,78.279,58.873c18.672,13.316,39.908,21.145,63.35,19.846
	c10.533-0.584,20.937-3.219,31.457-4.385c15.867-1.76,31.742-4.484,47.736-0.621c11.432,2.762,21.307,8.475,29.77,16.281
	c35.679,32.896,71.898,65.26,106.41,99.346c28.996,28.639,56.577,58.803,83.461,89.453c14.361,16.371,26.139,35.049,38.694,52.955
	c14.21,20.266,32.995,34.047,56.859,40.238c14.132,3.668,28.759,2.744,43.287,2.205c10.076-0.375,20.219-0.223,30.276,0.482
	c12.982,0.914,23.418,7.172,31.031,17.645c4.798,6.6,8.954,13.664,13.397,20.52C979.342,1043.544,978.887,1043.976,978.433,1044.41z
	"/>
<path fill-rule="evenodd" clip-rule="evenodd" d="M1407.563,1044.339c-0.863-0.996-2.11-1.854-2.529-3.01
	c-7.837-21.604-18.338-42.32-21.907-65.346c-2.547-16.43-2.221-32.867-0.712-49.4c1.729-18.955,2.755-37.975,3.994-56.973
	c0.867-13.277,1.057-26.625,2.486-39.842c2.317-21.434,13.135-38.418,28.834-52.834c15.64-14.361,33.701-25.012,51.809-35.748
	c22.709-13.463,46.14-26.166,62.608-47.752c11.527-15.109,23.017-30.285,33.691-45.996c13.518-19.9,26.98-39.918,38.998-60.732
	c11.25-19.49,18.005-40.896,19.738-63.572c1.255-16.469-3.102-32.018-8.262-47.403c-8.621-25.704-23.548-47.822-39.391-69.427
	c-11.053-15.071-22.271-30.025-33.008-45.318c-10.274-14.636-16.714-30.761-15.936-49.029c0.83-19.521,2.088-39.024,2.896-58.544
	c1.25-30.189-4.918-58.098-27.146-80.217c-13.641-13.572-30.991-20.842-49.491-24.646c-12.136-2.496-24.671-3.114-37.053-4.317
	c-14.905-1.448-29.953-1.858-44.724-4.129c-15.302-2.352-25.485-12.092-29.554-26.995c-3.67-13.439-6.158-27.204-9.136-40.832
	c-3.034-13.882-7.125-27.347-15.229-39.262c-10.933-16.075-26.869-25.447-44.662-31.32c-25.952-8.566-52.769-13.254-80.057-15.547
	c-26.349-2.213-52.655-4.999-78.919-8.052c-11.096-1.292-18.385-10.162-17.006-19.447c0.44-2.982,0.66-6.99,6.08-6.606
	c-2.752,4.713-4.91,9.435-1.797,14.271c3.338,5.19,8.395,8.245,14.537,8.947c15.053,1.72,30.105,3.502,45.199,4.782
	c35.57,3.016,71.119,5.974,105.578,16.246c17.485,5.212,33.659,12.833,46.489,26.075c13.239,13.667,19.01,31.039,22.84,49.205
	c2.668,12.658,5.07,25.384,8.183,37.934c4.191,16.888,15.733,26.968,33.093,28.57c18.784,1.734,37.649,2.552,56.454,4.08
	c21.624,1.756,42.014,7.703,60.207,19.807c21.83,14.524,32.569,35.941,37.496,61.05c3.266,16.664,1.449,33.219,0.344,49.844
	c-1.286,19.312-3.584,38.672,0.65,57.893c2.994,13.601,10.509,25.001,18.479,36.125c15.882,22.162,32.334,43.944,47.411,66.642
	c15.818,23.816,26.042,50.085,28.565,78.874c1.536,17.51-3.291,34.043-8.722,50.383c-7.188,21.629-19.288,40.668-32.184,59.174
	c-17.216,24.709-34.646,49.273-52.406,73.592c-12.682,17.361-30.645,28.57-48.579,39.689c-17.85,11.066-36.183,21.473-53.263,33.633
	c-15.4,10.963-29.601,24.043-35.684,42.785c-3.388,10.445-5.306,21.602-6.188,32.572c-1.457,18.141-1.317,36.402-2.292,54.59
	c-0.558,10.414-1.886,20.793-3.045,31.168c-3.104,27.812,0.123,54.691,11.142,80.576c4.27,10.033,7.926,20.328,11.827,30.516
	c0.283,0.734,0.293,1.572,0.43,2.361C1408.353,1043.728,1407.959,1044.037,1407.563,1044.339z"/>
<path fill-rule="evenodd" clip-rule="evenodd" d="M1215.17-48.908c7.047,1.906,14.097,3.789,21.135,5.721
	c16.195,4.448,32.452,8.69,48.56,13.445c16.156,4.769,32.083,10.254,45.687,20.709c15.334,11.785,25.128,27.404,31.195,45.551
	c4.521,13.521,8.651,27.184,13.611,40.539c6.836,18.416,20.532,28.785,39.675,32.791c21.026,4.401,42.254,8.311,62.804,14.417
	c27.733,8.244,51.906,22.626,66.926,48.704c14.252,24.746,18.836,51.346,15.642,79.789c-2.235,19.902-3.565,40.013-3.522,60.028
	c0.037,17.601,7.636,33.462,17.727,47.587c15.265,21.366,31.391,42.112,47.046,63.204c12.646,17.041,24.568,34.473,32.425,54.445
	c9.88,25.113,9.777,50.03,1.23,75.495c-7.451,22.197-18.838,42.32-30.395,62.455c-13.311,23.186-26.84,46.311-34.025,72.365
	c-4.022,14.58-7.373,29.348-11.595,43.867c-3.866,13.293-13.169,21.521-26.293,25.619c-23.567,7.359-47.383,14.037-70.601,22.375
	c-21.117,7.584-38.281,21.045-49.656,40.875c-6.08,10.6-8.07,22.441-8.838,34.422c-0.87,13.629-1.195,27.293-1.849,40.939
	c-0.774,16.166-1.704,32.328-2.463,48.496c-1.535,32.734,3.013,64.438,16.323,94.621c0.407,0.92,0.748,1.873,1.051,2.832
	c0.089,0.289-0.054,0.652-0.301,2.879c-1.77-2.215-3.027-3.326-3.716-4.719c-7.534-15.242-11.05-31.699-14.032-48.252
	c-3.702-20.551-3.006-41.275-1.867-62.008c1.074-19.533,1.652-39.096,2.898-58.615c0.752-11.729,1.527-23.564,3.776-35.064
	c4.245-21.707,18.709-36.369,36.186-48.461c13.6-9.406,29.129-14.424,44.746-19.15c15.11-4.574,30.22-9.156,45.405-13.467
	c15.224-4.324,24.146-14.145,27.907-29.451c4.047-16.465,8.084-32.992,13.33-49.098c7.75-23.787,20.773-45.131,33.196-66.676
	c10.511-18.232,20.158-36.754,27.419-56.652c12.352-33.846,7.465-65.709-11.053-95.166c-15.014-23.882-32.756-46.039-49.082-69.105
	c-9.417-13.304-19.064-26.509-27.455-40.453c-10.356-17.206-12.214-36.468-10.464-56.178c1.535-17.276,3.96-34.532,4.392-51.837
	c1.072-42.746-15.602-84.528-60.834-105.776c-18.912-8.884-39.008-13.417-59.351-17.331c-10.877-2.093-21.78-4.305-32.409-7.37
	c-18.872-5.439-29.198-19.611-35.399-37.219c-4.798-13.624-8.595-27.607-13.604-41.146c-9.802-26.485-28.704-44.17-55.32-52.83
	c-22.975-7.473-46.421-13.492-69.622-20.276c-5.741-1.679-11.347-3.829-17.015-5.762
	C1214.858-47.501,1215.015-48.204,1215.17-48.908z"/>
<path fill-rule="evenodd" clip-rule="evenodd" d="M789.077,1044.074c-1.008-0.51-3.475-1.107-5.002-2.637
	c-9.635-9.648-19.389-19.207-28.488-29.348c-19.044-21.217-38.635-41.836-60.645-60.047c-30.875-25.547-61.007-52.061-92.771-76.447
	c-20.688-15.885-44.101-27.393-71.93-23.668c-14.608,1.955-26.738,8.736-37.34,18.523c-8.072,7.451-15.767,15.365-19.652,25.943
	c-6.033,16.424-3.035,32.105,4.482,47.34c13.02,26.379,26.057,52.754,38.889,79.227c3.191,6.584,5.627,13.535,8.412,20.316
	c-0.465,0.352-0.93,0.701-1.395,1.053c-0.959-1.088-2.229-2.029-2.834-3.287c-15.35-31.963-30.627-63.959-45.922-95.947
	c-9.541-19.955-12.527-40.238,0.663-59.508c12.361-18.057,28.342-32.457,50.915-36.047c19.393-3.08,37.686,0.492,55.561,9.838
	c23.322,12.199,42.27,29.834,62.299,46.133c23.515,19.133,47.029,38.375,69.23,58.98c18.352,17.035,34.824,36.096,52.064,54.322
	C773.685,1027.341,781.603,1036.017,789.077,1044.074z"/>
<path fill-rule="evenodd" clip-rule="evenodd" d="M-29.139,862.169c1.147-0.297,2.452-1.107,3.419-0.812
	c17.684,5.4,35.527,10.557,50.439,22.182c17.756,13.842,27.659,32.262,30.316,54.463c2.248,18.787,0.99,37.285-10.771,53.033
	c-6.892,9.227-14.804,17.932-23.403,25.58c-10.399,9.25-21.963,17.199-33.15,25.539c-1.664,1.242-4.022,1.553-6.061,2.291
	c-0.166-0.375-0.332-0.752-0.498-1.125c9.116-6.75,18.484-13.186,27.289-20.318c12.937-10.479,25.539-21.236,34.646-35.658
	c8.881-14.068,10.627-29.412,9.219-45.133c-3.524-39.326-27.33-61.586-63.344-72.994c-6.002-1.9-12.01-3.791-18.014-5.686
	C-29.079,863.076-29.108,862.625-29.139,862.169z"/>
<path fill-rule="evenodd" clip-rule="evenodd" d="M1388.963,497.451c-1.936,16.722-7.922,29.873-20.179,40.044
	c-15.124,12.551-32.938,20.006-50.686,27.689c-15.086,6.533-30.481,12.527-45.002,20.156
	c-20.313,10.676-33.456,28.721-45.358,47.756c-12.037,19.254-23.973,38.588-36.729,57.361
	c-9.332,13.734-21.774,24.229-37.834,29.797c-16.523,5.73-33.117,5.002-49.367-0.502c-28.941-9.803-57.682-20.189-86.512-30.318
	c-18.219-6.4-36.521-12.574-54.648-19.223c-25.004-9.168-48.301-21.766-71.385-35.01c-30.749-17.648-61.888-34.686-93.458-50.811
	c-35.848-18.309-68.465-41.281-100.262-65.65c-18.974-14.541-38.302-28.635-56.938-43.594c-5.756-4.617-10.266-11.076-14.446-17.299
	c-7.445-11.082-5.46-21.529,3.831-31.26c16.963-17.764,38.508-26.974,62.957-28.034c11.176-0.485,21.631,4.361,31.854,8.716
	c11.745,5.001,23.177,10.859,35.191,15.07c21.811,7.643,43.175,4.798,64.499-3.579c27.623-10.851,54.884-23.065,84.224-28.806
	c29.697-5.811,59.386-12.011,89.352-15.954c19.891-2.617,37.606,4.672,49.508,21.999c11.236,16.355,21.338,33.52,33.053,49.511
	c16.986,23.19,38.925,39.907,67.606,46.32c27.411,6.13,50.629-0.288,68.398-23.054c10.257-13.142,20.705-26.138,31.174-39.113
	c6.835-8.47,14.95-15.462,24.604-20.625c15.792-8.447,31.784-7.522,46.898,0.768c30.339,16.641,52.812,40.797,65.774,73.192
	C1387.054,487.927,1387.879,493.312,1388.963,497.451z M691.528,401.769c-22.088,1.258-43.719,9.957-60.59,28.666
	c-6.969,7.729-8.494,17.033-1.937,25.912c4.952,6.701,10.077,13.685,16.507,18.807c19.476,15.518,39.789,29.983,59.475,45.245
	c30.929,23.979,63.398,45.377,98.309,63.252c30.349,15.537,60.352,31.83,89.834,48.945c23.761,13.797,47.93,26.514,73.71,35.945
	c23.961,8.766,48.135,16.938,72.225,25.338c22.351,7.795,44.586,15.957,67.137,23.121c8.531,2.709,17.931,4.816,26.715,4.182
	c22.018-1.596,40.574-11.486,53.302-29.746c13.649-19.588,26.305-39.883,38.949-60.145c11.904-19.078,25.077-37.111,45.212-47.977
	c14.875-8.027,30.749-14.234,46.294-20.982c17.904-7.77,35.941-15.178,51.021-28.113c15.771-13.529,21.478-32.625,13.738-51.641
	c-12.737-31.293-34.849-54.535-64.462-70.385c-13.943-7.463-28.933-8.629-42.965-0.204c-7.681,4.613-15.162,10.306-21.053,16.992
	c-12.792,14.517-24.246,30.202-36.746,44.988c-9.417,11.138-21.062,19.603-35.734,22.199c-12.566,2.227-25.198,0.963-37.541-2.408
	c-28.045-7.662-49.447-24.77-66.093-47.926c-10.597-14.74-20.104-30.271-29.969-45.532c-11.268-17.433-27.808-24.611-47.79-23.192
	c-13.035,0.926-25.975,3.65-38.853,6.119c-20.952,4.02-42.192,7.197-62.622,13.106c-23.976,6.934-47.429,15.864-70.71,24.945
	c-19.672,7.673-39.536,11.646-60.143,6.208c-10.126-2.671-19.606-7.759-29.438-11.6C723.29,410.41,709.915,402.89,691.528,401.769z"
	/>
<path fill-rule="evenodd" clip-rule="evenodd" d="M395.688,402.483c-0.688-16.233,2.282-30.479,6.512-44.256
	c6.4-20.835,13.644-41.438,21.272-61.86c5.278-14.129,17.296-19.947,31.808-15.686c32.973,9.681,59.355,28.49,76.129,58.905
	c7.592,13.765,13.703,28.407,19.687,42.978c4.769,11.61,8.954,23.545,12.249,35.649c3.512,12.904-1.167,24.045-11.037,32.606
	c-16.745,14.527-36.874,21.592-58.348,25.756c-20.942,4.061-40.93,1.384-59.623-8.408c-21.351-11.184-32.235-30.253-37.003-53.222
	C396.381,410.347,396.089,405.61,395.688,402.483z M397.63,395.949c1.791,10.102,2.338,18.653,4.871,26.568
	c13.459,42.065,42.754,52.729,75.787,52.615c24.953-0.085,48.563-8.558,68.91-24.112c12.98-9.922,17.339-23.191,11.738-38.505
	c-6.688-18.287-13.358-36.624-21.16-54.446c-15.855-36.22-42.234-61.377-80.311-73.654c-14.19-4.576-25.737-0.529-30.898,12.645
	c-7.104,18.125-13.996,36.406-19.525,55.051C402.669,366.859,400.488,382.257,397.63,395.949z"/>
<path fill-rule="evenodd" clip-rule="evenodd" d="M430.736,162.493c-0.449,15.764-2.626,31.173-9.378,45.6
	c-1.328,2.836-3.156,5.674-5.426,7.788c-4.314,4.019-8.921,6.077-15.438,3.502c-13.919-5.497-23.956-15.219-32.53-26.948
	c-11.966-16.367-19.195-34.548-21.14-54.774c-2.147-22.368,12.488-44.922,33.699-51.497c2.547-0.789,5.669-0.492,8.358,0.083
	c19.02,4.059,28.077,18.242,34.691,34.734C428.915,134.295,430.313,148.314,430.736,162.493z M427.64,157.25
	c-0.812-5.248-1.802-15.667-4.143-25.772c-3-12.937-8.601-24.846-18.707-33.958c-6.156-5.551-13.764-9.591-21.9-8.582
	c-7.33,0.911-14.646,4.324-19.628,10.501c-9.324,11.563-14.257,24.843-12.939,39.767c1.765,19.959,9.777,37.51,21.786,53.438
	c7.649,10.145,16.547,18.567,28.516,23.315c6.115,2.425,10.325,1.355,14.539-3.786c1.264-1.543,2.402-3.267,3.235-5.074
	C424.923,192.928,427.226,177.877,427.64,157.25z"/>
<path fill-rule="evenodd" clip-rule="evenodd" d="M406.392,390.513c2.676-21.509,8.592-47.034,23.354-69.339
	c11.039-16.679,26.242-22.03,49.008-12.046c20.445,8.967,34.349,24.236,44.393,43.602c7.473,14.41,12.475,29.681,15.777,45.538
	c4.32,20.736-4.053,45.699-28.156,57.618c-12.437,6.151-25.852,10.313-39.279,9.79c-21.15-0.823-47.605-10.731-58.676-38.42
	C408.721,417.028,406.17,406.444,406.392,390.513z M536.937,406.198c-2.408-18.943-9.205-39.671-20.519-58.913
	c-9.118-15.508-21.319-27.738-38.083-34.738c-7.69-3.211-15.504-6.734-24.32-4.896c-9.629,2.009-16.817,7.566-22.047,15.618
	c-10.225,15.75-15.179,33.531-19.68,51.528c-3.425,13.694-3.729,27.152-0.035,40.856c7.233,26.829,23.494,41.294,54.074,46.376
	c12.712,2.115,25.039-1.809,36.871-6.254C524.062,447.935,536.983,429.886,536.937,406.198z"/>
<path fill-rule="evenodd" clip-rule="evenodd" d="M411.544,155.979c-0.998,3.721-2.153,10.568-4.689,16.856
	c-3.561,8.817-11.945,11.331-20.215,6.955c-17.281-9.145-24.85-39.05-13.854-54.75c7.171-10.239,18.433-11.09,26.894-1.908
	C407.397,131.505,411.235,141.475,411.544,155.979z M408.454,155.312c-0.613-13.605-4.165-23.351-12.259-31.069
	c-6.778-6.466-14.714-5.63-20.325,1.931c-10.34,13.928-3.008,43.441,12.72,51.202c6.193,3.058,12.56,1.134,15.274-5.641
	C406.272,165.727,407.405,159.208,408.454,155.312z"/>
<path fill-rule="evenodd" clip-rule="evenodd" d="M982.83,398.299c28.526,0.008,48.679,13.902,64.1,36.44
	c11.919,17.424,24.557,34.3,40.721,48.1c24.122,20.593,51.582,34.573,82.98,39.946c8.889,1.521,18.11,2.168,27.108,1.742
	c12.991-0.617,22.803-7.994,29.985-18.35c9.778-14.095,18.978-28.595,28.337-42.977c5.572-8.565,12.203-15.922,20.935-21.514
	c13.286-8.511,26.615-8.818,40.671-2.128c18.945,9.021,31.222,23.624,38.706,43.069c5.925,15.389-2.191,34.243-12.828,42.737
	c-14.197,11.336-30.763,17.723-47.917,22.842c-10.939,3.264-22.044,6.035-32.854,9.678c-18.25,6.15-29.592,19.699-37.82,36.48
	c-9.174,18.709-18.216,37.498-28.065,55.852c-8.53,15.902-18.143,31.184-33.524,41.756c-11.249,7.73-23.826,12.633-37.21,12.539
	c-16.161-0.115-32.052-3.832-47.265-9.596c-35.481-13.445-71.016-26.766-106.321-40.656c-26.329-10.357-51.063-24.021-75.319-38.52
	c-28.427-16.992-57.036-33.691-85.154-51.184c-19.062-11.855-36.876-25.514-50.021-44.172c-4.148-5.889-7.877-12.143-11.176-18.547
	c-5.938-11.533-2.393-21.251,9.407-26.525c20.997-9.389,42.183-18.371,63.046-28.047c17.208-7.98,33.971-16.918,51.105-25.065
	c18.514-8.802,38.353-13.354,58.44-16.674C949.485,402.783,966.183,400.684,982.83,398.299z M975.922,402.487
	c-7.213,1.004-21.566,2.806-35.854,5.032c-22.797,3.552-45.304,8.409-66.3,18.359c-16.548,7.844-32.66,16.617-49.266,24.335
	c-20.863,9.698-42.038,18.724-63.061,28.074c-9.789,4.354-12.512,11.632-8.08,21.419c0.828,1.834,1.714,3.648,2.674,5.418
	c12.651,23.348,31.875,40.336,53.932,54.156c27.488,17.221,55.175,34.162,83.299,50.316c22.56,12.957,45.345,25.797,69.04,36.441
	c28.906,12.984,58.753,23.93,88.418,35.17c19.126,7.244,38.169,14.787,58.519,18.502c23.623,4.311,44.39-1.023,61.123-17.943
	c8.406-8.498,15.563-18.695,21.405-29.172c10.871-19.5,20.542-39.682,30.386-59.74c8.634-17.584,20.643-31.547,39.673-38.025
	c9.847-3.352,19.969-5.893,29.98-8.754c16.219-4.635,31.918-10.465,45.881-20.184c12.888-8.973,20.644-25.417,16.99-37.854
	c-5.91-20.127-17.697-35.813-37.1-44.896c-10.067-4.712-20.321-8.07-31.444-2.784c-11.771,5.594-20.803,13.988-27.683,25.002
	c-7.574,12.125-15.357,24.123-23.25,36.043c-5.99,9.047-12.743,17.483-22.812,22.356c-11.595,5.613-23.859,4.914-36.119,3.195
	c-36.251-5.082-67.496-20.779-94.516-45.141c-15.878-14.318-28.016-31.791-40.354-49.057
	C1027.115,412.758,1008.146,401.783,975.922,402.487z"/>
<path fill-rule="evenodd" clip-rule="evenodd" d="M464.415,333.328c14.466,0.71,25.455,7.756,33.883,19.088
	c9.342,12.563,14.979,26.782,16.002,42.364c1.104,16.762-6.422,40.049-32.328,47.085c-25.627,6.962-49.91-6.296-56.166-33.981
	c-5.238-23.181,1.115-44.366,15.57-62.908C446.983,337.781,454.567,333.015,464.415,333.328z M469.603,440.654
	c17.971,0.793,36.133-12.635,39.869-30.874c5.305-25.909-3.752-47.86-22.934-64.746c-16.766-14.759-34.875-10.902-47.164,7.805
	c-8.291,12.622-12.205,26.83-12.172,41.584C427.252,416.789,440.31,440.165,469.603,440.654z"/>
<path fill-rule="evenodd" clip-rule="evenodd" d="M1341.9,494.667c-0.549,9.33-5.75,18.458-15.265,25.19
	c-12.995,9.191-27.874,13.186-43.352,15.025c-5.723,0.682-11.756,0.498-17.43-0.514c-11.421-2.037-17.244-11.125-14.735-22.35
	c3.752-16.788,10.234-32.407,21.757-45.43c9.191-10.391,20.412-16.355,34.866-13.596
	C1324.717,456.233,1341.829,475.942,1341.9,494.667z M1338.824,493.913c0.143-16.127-16.401-35.173-32.063-37.876
	c-14.71-2.539-25.294,4.501-33.845,15.431c-9.148,11.691-14.948,24.996-18.187,39.477c-2.771,12.377,2.685,20.059,15.288,21.004
	c18.323,1.377,35.23-3.537,51.091-12.254C1331.637,513.908,1337.89,504.958,1338.824,493.913z"/>
<path fill-rule="evenodd" clip-rule="evenodd" d="M491.082,390.691c-1.53,12.554-4.853,21.308-14.422,26.075
	c-12.292,6.124-25.803-0.248-30.901-14.342c-4.578-12.656-1.411-23.954,7.074-33.68c8.512-9.758,23.418-8.133,30.914,3.765
	C487.558,378.56,489.237,385.954,491.082,390.691z M487.38,389.372c-1.303-3.201-3.051-10.012-6.618-15.678
	c-5.729-9.101-17.194-10.486-24.508-3.961c-11.297,10.082-12.409,28.876-2.372,40.145c4.98,5.594,12.674,7.448,19.747,4.758
	C481.509,411.64,487.465,402.264,487.38,389.372z"/>
<path fill-rule="evenodd" clip-rule="evenodd" d="M1118.229,686.867c-20.686-0.342-40.297-5.936-59.143-13.717
	c-36.764-15.182-73.812-29.887-109.604-47.145c-39.375-18.986-76.831-41.67-111.61-68.418
	c-12.177-9.365-22.385-20.436-28.347-34.875c-4.128-9.992-3.253-19.529,2.144-29.005c8.072-14.183,20.217-24.29,33.061-33.585
	c29.284-21.19,61.915-34.062,97.862-38.62c15.793-2.003,31.525-3.081,47.272-0.199c16.583,3.034,29.794,12.036,40.852,24.313
	c10.146,11.264,19.775,22.99,29.889,34.285c20.092,22.434,45.079,38.145,71.572,51.811c13.585,7.008,27.064,14.242,40.371,21.762
	c18.3,10.342,26.558,28.336,22.647,49.035c-3.818,20.205-10.9,39.164-22.915,56.025c-11.204,15.727-26.65,24.834-45.5,28.264
	C1124.016,687.3,1121.082,686.867,1118.229,686.867z M1124.956,683.91c13.173-0.834,28.938-8.197,41.041-22.549
	c13.313-15.781,19.952-34.738,25.238-54.402c5.374-20.002-1.266-41.938-23.931-53.018c-14.316-7-28.005-15.275-42.216-22.504
	c-26.687-13.58-50.595-30.719-70.403-53.329c-9.991-11.4-19.716-23.051-30.107-34.072c-9.656-10.244-21.471-17.123-35.593-19.666
	c-14.945-2.69-29.786-1.672-44.746,0.121c-34.068,4.082-65.205,15.82-93.384,35.218c-13.893,9.562-27.047,19.991-36.005,34.876
	c-6.311,10.485-5.937,20.565-0.549,31.094c5.799,11.336,14.119,20.559,24.041,28.229c36.852,28.48,76.706,52.328,118.61,72.316
	c33.74,16.096,68.617,29.859,103.26,43.992C1079.082,677.916,1098.654,683.613,1124.956,683.91z"/>
<path fill-rule="evenodd" clip-rule="evenodd" d="M1310.865,491.888c0.064,5.521-6.573,11.289-13,11.294
	c-3.701,0.004-8.119-4.425-8.178-8.196c-0.091-5.678,5.824-11.816,11.445-11.878C1306.356,483.049,1310.81,487.067,1310.865,491.888
	z M1307.671,492.079c0.04-3.03-2.909-5.737-6.342-5.822c-3.828-0.094-8.967,4.647-8.09,8.461c0.496,2.154,3.216,4.643,5.449,5.35
	C1301.768,501.045,1307.629,495.259,1307.671,492.079z"/>
<path fill-rule="evenodd" clip-rule="evenodd" d="M953.85,441.772c27.324,0.381,47.699,8.572,64.639,24.59
	c12.838,12.143,24.963,25.041,37.498,37.51c17.684,17.584,38.752,30.639,59.369,44.315c9.385,6.229,18.867,12.434,27.529,19.588
	c11.339,9.367,18.857,21.518,20.926,36.338c3.93,28.186-15.45,53.85-43.225,59.705c-15.705,3.312-30.166-0.094-44.504-4.754
	c-65.09-21.15-126.281-50.494-183.04-88.838c-12.562-8.486-24.83-17.447-34.053-29.846c-8.911-11.977-13.525-24.955-8.433-39.714
	c4.979-14.431,15.352-24.657,27.524-33.309c16.493-11.724,35.188-18.095,54.692-22.311
	C940.959,443.279,949.346,442.454,953.85,441.772z M951.561,445.103c-8.971,0.139-23.195,3.65-37.129,8.131
	c-21.839,7.022-41.47,17.678-55.046,37.038c-10.354,14.769-10.274,29.72-0.292,44.642c6.56,9.805,15.001,17.723,24.478,24.559
	c59.242,42.746,124.364,73.799,193.547,96.574c13.675,4.504,27.478,7.713,42.517,4.771c25.595-5.004,44.469-29.121,41.237-55.162
	c-1.758-14.166-8.64-25.945-19.409-34.908c-9.01-7.5-18.937-13.934-28.699-20.477c-19.283-12.924-39.249-24.934-55.935-41.318
	c-11.768-11.555-23.147-23.504-34.795-35.182C1004.198,455.888,983.171,445.085,951.561,445.103z"/>
<path fill-rule="evenodd" clip-rule="evenodd" d="M954.014,467.903c19.832,1.145,37.119,8.021,51.764,21.255
	c19.115,17.273,37.816,35.021,57.338,51.816c13.242,11.393,27.798,21.24,41.365,32.27c9.661,7.854,17.186,17.635,20.844,29.764
	c3.896,12.914-4.228,26.844-16.979,31.404c-12.83,4.59-25.206,2.762-37.611-1.004c-31.791-9.641-61.324-24.6-91.2-38.783
	c-23.774-11.287-46.251-24.609-67.171-40.594c-7.609-5.816-13.853-12.771-18.651-20.988c-10.4-17.809-6.066-35.996,11.84-48.909
	C920.013,473.706,936.52,469.118,954.014,467.903z M1091.033,635.179c6.396-1.523,11.377-2.375,16.141-3.906
	c13.406-4.307,19.584-19.129,13.603-31.846c-5.061-10.762-12.575-19.553-21.793-26.844c-15.709-12.424-32.11-24.016-47.329-37.004
	c-17.543-14.971-33.938-31.276-51.177-46.616c-12.059-10.73-26.726-16.689-42.653-17.499c-19.025-0.968-36.623,4.876-51.916,16.372
	c-14.231,10.698-18.403,25.918-11.349,40.038c4.172,8.344,9.628,15.855,17.219,21.496c8.24,6.125,16.297,12.592,25.013,17.973
	c38.43,23.75,79.375,42.436,121.473,58.568C1069.158,630.085,1080.784,632.333,1091.033,635.179z"/>
<path fill-rule="evenodd" clip-rule="evenodd" d="M962.482,503.569c3.949,1.51,11.551,3.415,18.137,7.124
	c20.285,11.416,32.953,29.83,43.446,49.918c0.745,1.426,0.589,4.381-0.407,5.455c-2.74,2.959-6.197,5.396-10.673,4.176
	c-9.701-2.648-19.819-4.412-28.927-8.438c-11.74-5.189-23.15-11.527-33.725-18.793c-5.201-3.576-9.459-9.838-11.928-15.803
	C933.312,514.902,943.539,503.612,962.482,503.569z M1022.027,563.408c-10.192-19.592-22.125-37.619-41.508-48.984
	c-6.346-3.723-13.816-6.324-21.081-7.455c-6.946-1.08-14.024,1.793-17.722,8.359c-3.426,6.082-0.993,12.217,3.082,17.295
	c3.021,3.762,6.355,7.49,10.217,10.332c16.643,12.252,35.63,19.129,55.639,23.645
	C1015.059,567.593,1018.526,567.048,1022.027,563.408z"/>
</svg>
